<svg xmlns="http://www.w3.org/2000/svg" width="76" height="30" viewBox="0 0 76 30">
  <g fill="none">
    <path fill="#0057A8" d="M3.96690438,0 L72.0330956,0 C74.2234252,0 76,1.7899592 76,3.99749799 L76,26.0025023 C76,28.2100411 74.2234252,30 72.0330956,30 L3.96690438,30 C1.7765748,30 0,28.2100411 0,26.0025023 L0,3.99749799 C0,1.7899592 1.7765748,0 3.96690438,0 Z"/>
    <g fill="#FFF" transform="translate(9.652 10.624)">
      <path d="M5.72244094,3.54707542 C5.72244094,4.73647189 5.39985206,5.64670024 4.75935039,6.27776046 C4.11651068,6.91116649 3.1908217,7.225524 1.98228346,7.225524 L0,7.225524 L0,0 L2.19734252,0 C3.31237682,0 4.17962598,0.314357513 4.79675197,0.93837974 C5.41387795,1.55771037 5.72244094,2.42805773 5.72244094,3.54707542 Z M4.83415354,3.57522681 C4.83415354,2.63215487 4.6003937,1.92133267 4.13287402,1.4451048 C3.66535433,0.971223332 2.9687497,0.731936198 2.04773622,0.731936198 L0.832185039,0.731936198 L0.832185039,6.5029716 L1.85137795,6.5029716 C2.84251969,6.5029716 3.58587569,6.25664707 4.08612205,5.76165161 C4.58403036,5.26900254 4.83415354,4.53941214 4.83415354,3.57522681 Z" transform="translate(0 .113)"/>
      <path d="M6.59202756,3.71598377 C6.59202756,4.87488305 6.30216535,5.7851108 5.72244094,6.44666882 C5.14271654,7.11057263 4.33858268,7.44135134 3.31003937,7.44135134 C2.24876998,7.44135134 1.43294769,7.11761003 0.86023622,6.46543641 C0.285187307,5.81560859 0,4.89599645 0,3.70659997 C0,2.5312795 0.285187307,1.62105115 0.86023622,0.97591493 C1.43996063,0.32608711 2.25811978,0 3.31938976,0 C4.34793307,0 5.14739203,0.333125108 5.72244094,0.994682525 C6.30216535,1.65154834 6.59202756,2.55943089 6.59202756,3.71598377 Z M0.888287402,3.71598377 C0.888287402,4.6989367 1.09399606,5.44260249 1.50541339,5.94932755 C1.91683071,6.45136102 2.51759335,6.70003135 3.31003937,6.70003135 C4.10014794,6.70003135 4.69857313,6.45136102 5.10531496,5.94932755 C5.50971934,5.44260249 5.71309055,4.6989367 5.71309055,3.71598377 C5.71309055,2.74710684 5.50971934,2.01282424 5.10531496,1.51079138 C4.69857313,1.00406632 4.10482283,0.750703792 3.31938976,0.750703792 C2.5199308,0.750703792 1.91683071,1.00406632 1.50541339,1.51079138 C1.09399606,2.01751644 0.888287402,2.75414484 0.888287402,3.71598377 Z" transform="translate(6.939)"/>
      <path d="M7.10629921,7.225524 L6.28346457,7.225524 L4.83415354,2.39286834 C4.76402589,2.1746952 4.68688469,1.90256507 4.6003937,1.57647796 C4.51857761,1.25273725 4.47416309,1.05802331 4.46948819,0.994682525 C4.39935994,1.42633721 4.28715521,1.90256507 4.13287402,2.42101973 L2.73031496,7.225524 L1.90748031,7.225524 L0,0 L0.878937008,0 L2.01033465,4.46668756 C2.17162879,5.09305619 2.28617096,5.65842983 2.35629921,6.16515489 C2.4427902,5.56459186 2.57369572,4.97341262 2.74901575,4.39161719 L4.03001969,0 L4.91830709,0 L6.26476378,4.43853617 C6.41904498,4.94526123 6.54995049,5.52236447 6.65748031,6.16515489 C6.71825757,5.69596502 6.83747524,5.12824498 7.01279528,4.45730377 L8.13484252,0 L9.02312992,0 L7.10629921,7.225524 Z" transform="translate(14.275 .113)"/>
      <path d="M5.60088583,7.225524 L4.64714567,7.225524 L0.729330709,1.16359088 L0.691929134,1.16359088 C0.748031496,1.87675948 0.776082677,2.5312795 0.776082677,3.12480454 L0.776082677,7.225524 L0,7.225524 L0,0 L0.944389764,0 L4.84350394,6.04316553 L4.89025591,6.04316553 C4.88324296,5.94932755 4.86688022,5.66312203 4.84350394,5.17985617 C4.8177902,4.6989367 4.80843981,4.354082 4.81545276,4.14763845 L4.81545276,0 L5.60088583,0 L5.60088583,7.225524 Z" transform="translate(24.413 .113)"/>
      <polygon points="0 7.226 0 0 .832 0 .832 6.465 3.993 6.465 3.993 7.226" transform="translate(31.976 .113)"/>
      <path d="M6.59202756,3.71598377 C6.59202756,4.87488305 6.30216535,5.7851108 5.72244094,6.44666882 C5.14271654,7.11057263 4.33858268,7.44135134 3.31003937,7.44135134 C2.24876998,7.44135134 1.43294769,7.11761003 0.86023622,6.46543641 C0.285187307,5.81560859 0,4.89599645 0,3.70659997 C0,2.5312795 0.285187307,1.62105115 0.86023622,0.97591493 C1.43996063,0.32608711 2.25811978,0 3.31938976,0 C4.34793307,0 5.14739203,0.333125108 5.72244094,0.994682525 C6.30216535,1.65154834 6.59202756,2.55943089 6.59202756,3.71598377 Z M0.888287402,3.71598377 C0.888287402,4.6989367 1.09399606,5.44260249 1.50541339,5.94932755 C1.91683071,6.45136102 2.51759335,6.70003135 3.31003937,6.70003135 C4.10014794,6.70003135 4.69857313,6.45136102 5.10531496,5.94932755 C5.50971934,5.44260249 5.71309055,4.6989367 5.71309055,3.71598377 C5.71309055,2.74710684 5.50971934,2.01282424 5.10531496,1.51079138 C4.69857313,1.00406632 4.10482283,0.750703792 3.31938976,0.750703792 C2.5199308,0.750703792 1.91683071,1.00406632 1.50541339,1.51079138 C1.09399606,2.01751644 0.888287402,2.75414484 0.888287402,3.71598377 Z" transform="translate(36.808)"/>
      <path d="M5.4886811,7.25367539 L4.59104331,4.95464503 L1.72047244,4.95464503 L0.841535433,7.25367539 L0,7.25367539 L2.83316929,0 L3.53444882,0 L6.34891732,7.25367539 L5.4886811,7.25367539 Z M4.33858268,4.20394124 L3.50639764,1.96121366 C3.39419291,1.67969974 3.28198819,1.33249923 3.16978346,0.919612146 C3.09498031,1.23866126 2.99212598,1.58586176 2.86122047,1.96121366 L2.01968504,4.20394124 L4.33858268,4.20394124 Z" transform="translate(44.013 .084)"/>
      <path d="M5.72244094,3.54707542 C5.72244094,4.73647189 5.39985206,5.64670024 4.75935039,6.27776046 C4.11651068,6.91116649 3.1908217,7.225524 1.98228346,7.225524 L0,7.225524 L0,0 L2.19734252,0 C3.31237682,0 4.17962598,0.314357513 4.79675197,0.93837974 C5.41387795,1.55771037 5.72244094,2.42805773 5.72244094,3.54707542 Z M4.83415354,3.57522681 C4.83415354,2.63215487 4.6003937,1.92133267 4.13287402,1.4451048 C3.66535433,0.971223332 2.9687497,0.731936198 2.04773622,0.731936198 L0.832185039,0.731936198 L0.832185039,6.5029716 L1.85137795,6.5029716 C2.84251969,6.5029716 3.58587569,6.25664707 4.08612205,5.76165161 C4.58403036,5.26900254 4.83415354,4.53941214 4.83415354,3.57522681 Z" transform="translate(51.343 .113)"/>
    </g>
  </g>
</svg>
