<svg id="Layer_1" data-name="Layer 1" xmlns="http://www.w3.org/2000/svg" viewBox="0 0 894.9 116.87"><defs><style>.cls-1{isolation:isolate;}.cls-2{font-size:54px;font-family:OpenSans-Extrabold, Open Sans;font-weight:800;}.cls-2,.cls-3{fill:#f2644c;}</style></defs><g id="Headers"><g id="Description" class="cls-1"><text class="cls-2" transform="translate(0 81.81)"><tspan xml:space="preserve">THE SKELETONIC               LIBRARY</tspan></text></g><g id="Stylus_logo" data-name="Stylus logo"><path class="cls-3" d="M487.81,90.88c4.94-5.9,5.52-12,1.7-23.31-2.42-7.16-6.44-12.68-3.49-17.13,3.15-4.74,9.82-.14,4.26,6.19l1.11.78c6.68.77,10-8.37,5-11-13.15-6.87-24.67,6.33-19.59,21.62C479,74.53,482,81.4,479.54,86.87c-2.13,4.69-6.24,7.45-9,7.54-5.75.29-1.93-12.91,4.69-16.2.59-.29,1.41-.68.63-1.65-8.17-.92-13,2.86-15.72,8.13C452.11,100,475.38,105.68,487.81,90.88ZM631.48,45.8c1.89,4.64,4.74,9.24,3,13.3-1.4,3.48-3.24,4.93-5.27,5.27-2.86.49-2.08-8.46,2.8-11.12.44-.25,1.07-1.41.49-2.08-6.19-.34-9.68,2.61-11.56,6.53-5.47,11.46,12.38,14.61,21.14,3.33,3.48-4.49,3.62-8.94.29-17-2.13-5.13-5.37-8.95-3.34-12.34,2.17-3.58,7.4-.48,3.48,4.31l.87.48c5.08.29,7.16-6.48,3.29-8.17C636.51,23.93,627,34.91,631.48,45.8ZM566.86,33.56c-3.54-2.81-13.45,1.88-16.26,8.85-3.53,8.85-8.75,21.77-13.88,27.43-5.42,6-6,1.35-5.42-2.08,1.26-8.08,9.14-26.8,13.45-32.07-1.6-2.37-12-2-19.3,9.24-2.71,4.25-8.9,18.43-15.77,29.6-1.5,2.42-3.39.73-1.94-4.93,1.65-6.53,6.48-24.48,12.72-38.61,16.35-3.24,33.72-5.51,47-5.56,1.79-.48,3-2.08,0-2.18-11.46-.38-28.68,1-44.79,3,3.1-6.19,6.43-11.12,9.82-13.2-3.68-2.32-11.13-1.41-15.38,4.88a83.9,83.9,0,0,0-5.57,9.87c-11.8,1.84-21.91,3.92-27,5.85-5.32,2-4.74,8.47-1.5,7.26A215.91,215.91,0,0,1,509,33.46C502.52,48,497.49,65.1,496.28,72.06c-3,16.93,7.5,16.84,12.62,10.16,5.57-7.3,17.18-33,19-35.7.53-.92,1.25-.43.87.39-13,25.88-11.86,35.89-1.36,33.67,4.74-1,12.92-9.15,15-13.35.43-1,1.35-.92,1.16-.49-8.23,21.34-18.68,38.61-25.69,44-6.38,4.89-11.13-5.71,11.47-20.89,3.33-2.28,1.79-5.37-2-4.31-11.66,1.84-45,12.43-59.69,22.59-1.11.77-2.13,1.4-2.08,3,.05.92,1.64.58,2.42.1,19-11.37,34.49-15.82,52.29-19.55a1,1,0,0,0,.77,0c.83-.19.78.24.25.58-1.21.68-2.42,1.31-2.71,1.41-12,4.69-19.26,15-16.69,20.31,2.17,4.55,13.93,2.9,19.49-.09C535.07,106.55,545,92,551.76,72,557.66,54.26,565.11,34.14,566.86,33.56Zm79.28,41c-22.2-2.9-70.09,1-91.23,6.58-6.29,1.64-4.55,5-1.36,4.35.05,0,1.41-.34,1.45-.34,17.37-3.38,59.5-6.33,84.08-1.64C642,84,650.88,75.16,646.14,74.53Zm-73.09-2.61c6.19-3.1,15.38-22.25,21.43-32.75.43-.77,1.21-.15.77.39-15.29,26.31-8.8,29.36-2.76,29,8.08-.48,15.53-12.09,17.18-14.7.67-1,1.06-.2.67.53-.38,1.21-1.79,3.34-3.09,6.24-1.84,4.11.09,5.71,1.69,6.43,2.52,1.21,9.39.44,10.45-3.77-6.87-.15,9.58-32.56,11.27-34.54-4.59-2.66-11.71.24-14.95,6.63C608.8,49,603,60.07,599.36,60.26c-7.06.39,8.13-30.52,10.6-31.49-1.5-2.18-11.13-1.26-16.5,7.06-1.93,3-13.74,23.9-16.64,27.33-5.13,6.1-5.51.87-4.06-5.22a69.61,69.61,0,0,1,2.37-7.69c3.38-7.65,7-10.06,9.24-12.53,14.94-16.59,23.51-30,20.12-35.31-3-4.7-13-2.62-19.45,7.06-11.85,17.75-22.78,42.08-24.18,53.21S567.58,74.63,573.05,71.92Zm6.29-32.56c.53-1.21.87-1.55,1.79-3.58h0c5.32-11.7,12-24,16.59-29.8,2.85-3,6.87,1.07-.39,12.2A111.92,111.92,0,0,1,583,36.12v.05c-1.35,1.5-2.56,2.76-3.09,3.48-.39.49-.82.39-.53-.29Z"/></g></g></svg>