<svg xmlns="http://www.w3.org/2000/svg" width="893" height="118" viewBox="0 0 893 118">
  <path fill="#F2644C" d="M515.765273,17.9304696 C520.015273,11.6404696 527.465273,10.7304696 531.145273,13.0504696 C527.755273,15.1304696 524.425273,20.0604696 521.325273,26.2504696 L523.15342,26.0267644 L523.15342,26.0267644 L524.988835,25.808724 L524.988835,25.808724 L526.829304,25.5967159 L526.829304,25.5967159 L529.594638,25.2908186 L529.594638,25.2908186 L531.438051,25.0954995 L531.438051,25.0954995 L533.278765,24.9074992 L533.278765,24.9074992 L535.114566,24.7271853 L535.114566,24.7271853 L536.943239,24.5549252 L536.943239,24.5549252 L538.762567,24.3910866 L538.762567,24.3910866 L541.469196,24.1619229 L541.469196,24.1619229 L543.255475,24.020746 L543.255475,24.020746 L545.024658,23.8892769 L545.024658,23.8892769 L546.774531,23.7678833 L546.774531,23.7678833 L548.502877,23.6569326 L548.502877,23.6569326 L550.207483,23.5567925 L550.207483,23.5567925 L551.886132,23.4678305 L551.886132,23.4678305 L553.536611,23.3904141 L553.536611,23.3904141 L555.156703,23.3249109 L555.156703,23.3249109 L556.744195,23.2716884 C557.005937,23.2638618 557.266229,23.2565623 557.525023,23.2497974 L559.059461,23.2156852 C560.322575,23.1927071 561.545963,23.1834787 562.723854,23.1889571 L564.115117,23.2026516 C564.79946,23.2130897 565.466594,23.2289602 566.115273,23.2504696 C568.593534,23.3330783 568.198808,24.4393165 566.977465,25.0921906 L566.77805,25.1912931 L566.77805,25.1912931 L566.566686,25.2815685 C566.422192,25.3385225 566.270926,25.3887305 566.115273,25.4304696 C560.34136,25.4522087 553.79429,25.8936076 546.894052,26.6519293 L544.813806,26.8888307 C542.37547,27.1760683 539.899017,27.5008705 537.402452,27.8588323 L535.258034,28.1736747 C534.89995,28.2274676 534.541561,28.2819116 534.182919,28.3369938 L532.02845,28.6750426 C530.590674,28.9053771 529.150531,29.1455119 527.711381,29.3946251 L525.55382,29.7749259 C525.194491,29.8393974 524.835329,29.9044044 524.476386,29.969934 L522.325784,30.3692804 C521.252221,30.5719866 520.181578,30.7791652 519.115273,30.9904696 C518.951063,31.3623117 518.787829,31.7367992 518.625603,32.1136545 L518.141986,33.2510455 L518.141986,33.2510455 L517.664614,34.4009762 L517.664614,34.4009762 L517.193681,35.5617803 L517.193681,35.5617803 L516.729382,36.7317912 L516.729382,36.7317912 L516.271909,37.9093426 L516.271909,37.9093426 L515.821455,39.092768 L515.821455,39.092768 L515.378216,40.2804011 L515.378216,40.2804011 L514.942383,41.4705753 L514.942383,41.4705753 L514.302945,43.256956 L514.302945,43.256956 L513.886477,44.4461926 L513.886477,44.4461926 L513.276994,46.2233556 L513.276994,46.2233556 L512.686353,47.9874889 L512.686353,47.9874889 L512.115209,49.7329685 L512.115209,49.7329685 L511.745601,50.883481 L511.745601,50.883481 L511.208402,52.5853727 L511.208402,52.5853727 L510.692442,54.2536129 L510.692442,54.2536129 L510.038662,56.4158654 L510.038662,56.4158654 L509.574798,57.9837134 L509.574798,57.9837134 L508.99285,59.991696 L508.99285,59.991696 L508.584639,61.4285313 L508.584639,61.4285313 L507.843689,64.1000118 L507.843689,64.1000118 L507.207723,66.4644111 L507.207723,66.4644111 L506.681968,68.4767358 L506.681968,68.4767358 L506.395273,69.6004696 C504.945273,75.2604696 506.835273,76.9504696 508.335273,74.5304696 C511.205952,69.8630053 513.957899,64.6699812 516.386828,59.8954968 L517.484192,57.7250451 L517.484192,57.7250451 L521.013708,50.6671948 L521.013708,50.6671948 L521.785718,49.1476072 L521.785718,49.1476072 L522.324687,48.1061353 L522.324687,48.1061353 L522.827647,47.1566587 L522.827647,47.1566587 L523.142199,46.5782528 L523.142199,46.5782528 L523.43962,46.0459389 L523.43962,46.0459389 L523.719461,45.5617989 L523.719461,45.5617989 L523.981271,45.1279149 C524.023378,45.0599046 524.064716,44.994075 524.105273,44.9304696 C527.60319,39.5446363 531.812869,36.6545625 535.425108,35.36581 L535.892773,35.2067196 C536.279492,35.0815894 536.65848,34.9749189 537.028055,34.8855595 L537.46692,34.7865641 L537.46692,34.7865641 L537.896103,34.7037463 L537.896103,34.7037463 L538.314959,34.6366649 C538.452785,34.6168782 538.588782,34.5996407 538.722842,34.5848789 L539.119107,34.5479473 C539.509348,34.5182958 539.881192,34.5102642 540.231735,34.5218676 L540.57507,34.5399425 C540.855087,34.5603365 541.119638,34.5939065 541.367043,34.6395039 L541.655591,34.6999203 C542.495898,34.8980477 543.105273,35.2460946 543.405273,35.6904696 C542.858935,36.3584978 542.255234,37.2426438 541.614924,38.2938406 L541.182855,39.0188483 C540.818657,39.6427476 540.444584,40.3148404 540.064195,41.0267133 L539.604923,41.8995168 L539.604923,41.8995168 L539.140955,42.8072785 L539.140955,42.8072785 L538.673655,43.7467677 L538.673655,43.7467677 L538.204392,44.7147535 L538.204392,44.7147535 L537.734531,45.7080053 C537.656247,45.8754733 537.577995,46.0438594 537.499804,46.2130963 L537.031609,47.2381894 L537.031609,47.2381894 L536.566233,48.2804715 L536.566233,48.2804715 L536.105043,49.3367119 L536.105043,49.3367119 L535.649405,50.40368 L535.649405,50.40368 L535.200686,51.4781449 L535.200686,51.4781449 L534.760253,52.5568758 L534.760253,52.5568758 L534.329471,53.6366422 L534.329471,53.6366422 L533.909708,54.7142131 L533.909708,54.7142131 L533.50233,55.7863578 L533.50233,55.7863578 L533.108704,56.8498457 L533.108704,56.8498457 L532.730196,57.9014459 L532.730196,57.9014459 L532.368174,58.9379277 C532.309286,59.1092353 532.251143,59.2797784 532.193771,59.4494896 L531.859039,60.4572361 C531.642366,61.1216944 531.43896,61.7706891 531.250644,62.3999127 L530.979716,63.3283812 L530.979716,63.3283812 L530.732788,64.2239623 C530.42016,65.3947094 530.17518,66.4691412 530.012424,67.4127964 L529.915867,68.0073842 L529.915867,68.0073842 L529.864808,68.3834339 L529.864808,68.3834339 L529.824303,68.7634131 L529.824303,68.7634131 L529.803659,69.0173135 L529.803659,69.0173135 L529.782979,69.3966321 L529.782979,69.3966321 L529.775535,69.7712287 L529.775535,69.7712287 L529.778422,70.0167342 L529.778422,70.0167342 L529.787937,70.2577377 L529.787937,70.2577377 L529.804378,70.493278 L529.804378,70.493278 L529.828043,70.7223938 C529.832606,70.759991 529.837482,70.7972804 529.842678,70.8342421 L529.877737,71.0519187 L529.877737,71.0519187 L529.920765,71.2607675 L529.920765,71.2607675 L529.972061,71.4598273 C529.99057,71.5244422 530.010507,71.5872655 530.031921,71.6481368 L530.100644,71.8247346 C530.527959,72.8188608 531.422866,73.1661409 533.05157,72.0079233 L533.338014,71.7944638 C533.435925,71.7182879 533.536281,71.6370358 533.639133,71.5505475 L533.955224,71.2752131 L533.955224,71.2752131 L534.286585,70.9674995 C534.343101,70.9134622 534.400266,70.8580357 534.458086,70.8012 L534.812912,70.4431149 C534.873376,70.3805622 534.934507,70.3165602 534.996312,70.251089 L535.375273,69.8404696 L535.375273,69.8404696 C537.447004,67.5547004 539.533413,64.0848853 541.517263,60.177263 L542.081185,59.049531 L542.081185,59.049531 L542.638918,57.9018406 C542.731324,57.7091105 542.823447,57.51571 542.915273,57.3217196 L543.462583,56.1513435 C543.643769,55.7592884 543.82367,55.3655185 544.002185,54.9706784 L544.533471,53.783592 L544.533471,53.783592 L545.055833,52.5939522 L545.055833,52.5939522 L545.568664,51.4056266 L545.568664,51.4056266 L546.071357,50.2224831 L546.071357,50.2224831 L546.563303,49.0483895 L546.563303,49.0483895 L547.279742,47.3126782 L547.279742,47.3126782 L547.968585,45.6190853 L547.968585,45.6190853 L549.255273,42.4104696 L549.255273,42.4104696 C552.065273,35.4404696 561.975273,30.7504696 565.515273,33.5604696 C565.408698,33.5957916 565.280983,33.7035837 565.133765,33.878895 L565.002841,34.0455817 L565.002841,34.0455817 L564.862593,34.2446461 L564.862593,34.2446461 L564.713251,34.4753954 L564.713251,34.4753954 L564.555044,34.7371368 C564.52795,34.7833045 564.500496,34.8307347 564.472688,34.879413 L564.212952,35.3508243 L564.212952,35.3508243 L563.934818,35.887291 L563.934818,35.887291 L563.739555,36.2799226 L563.739555,36.2799226 L563.432474,36.9196185 L563.432474,36.9196185 L563.21863,37.3789044 L563.21863,37.3789044 L562.884751,38.1153342 L562.884751,38.1153342 L562.535824,38.9066863 L562.535824,38.9066863 L561.92294,40.3413054 L561.92294,40.3413054 L561.273987,41.9111655 L561.273987,41.9111655 L560.592544,43.6054409 L560.592544,43.6054409 L559.736968,45.7875568 L559.736968,45.7875568 L558.845951,48.1145346 L558.845951,48.1145346 L557.769891,50.9874744 L557.769891,50.9874744 L557.140903,52.694817 L557.140903,52.694817 L556.343689,54.8857574 L556.343689,54.8857574 L555.213511,58.0396303 L555.213511,58.0396303 L554.075797,61.2676088 L554.075797,61.2676088 L552.77893,65.0093618 L552.77893,65.0093618 L552.408889,66.0890511 C552.039692,67.1689532 551.673205,68.2489676 551.310992,69.3243596 L550.950263,70.3980354 C550.770668,70.9339276 550.592273,71.4682696 550.415273,72.0004696 C543.655273,92.0004696 533.725273,106.55047 520.055273,113.89047 C518.724006,114.606385 517.037293,115.245479 515.211882,115.741037 L514.562213,115.909872 C508.887955,117.319569 502.154569,117.312864 500.565273,113.98047 C498.890442,110.52002 501.390351,104.936101 506.656258,100.167977 L507.210816,99.677753 C509.844259,97.4047477 513.111014,95.3454891 516.852582,93.8306729 L517.384752,93.6181651 L517.384752,93.6181651 L517.690184,93.4747391 L517.690184,93.4747391 L518.106357,93.2652021 L518.106357,93.2652021 L518.789348,92.9060251 L518.789348,92.9060251 L519.763765,92.3732577 C519.830829,92.3358708 519.898051,92.2982474 519.965273,92.2604696 C520.495273,91.9204696 520.545273,91.4904696 519.715273,91.6804696 C519.468896,91.7832475 519.191651,91.7832475 518.945273,91.6804696 L517.229709,92.0438931 L517.229709,92.0438931 L515.527394,92.4130606 L515.527394,92.4130606 L513.837158,92.7892209 L513.837158,92.7892209 L512.157828,93.1736225 L512.157828,93.1736225 L510.488231,93.5675143 C510.210711,93.6340232 509.933548,93.7009795 509.656717,93.7684092 L507.999523,94.1788775 C494.770751,97.5114061 482.195104,102.054674 467.571913,110.685683 L466.655273,111.23047 C465.875273,111.71047 464.285273,112.05047 464.235273,111.13047 C464.196637,109.894106 464.796906,109.236937 465.583906,108.646806 L465.868688,108.440474 L465.868688,108.440474 L466.315273,108.13047 L466.315273,108.13047 C469.106373,106.20007 472.570738,104.254147 476.431745,102.355666 L477.663872,101.757797 L477.663872,101.757797 L478.920433,101.163522 C479.131789,101.0648 479.344082,100.966246 479.557272,100.86787 L480.846853,100.279813 L480.846853,100.279813 L482.156029,99.6964529 C482.595472,99.5028312 483.037857,99.3100656 483.482863,99.1182296 L484.82542,98.5455838 L484.82542,98.5455838 L486.181763,97.9789563 L486.181763,97.9789563 L487.549957,97.4187877 L487.549957,97.4187877 L488.928066,96.8655185 L488.928066,96.8655185 L490.314153,96.3195896 L490.314153,96.3195896 L491.706284,95.7814414 L491.706284,95.7814414 L493.102523,95.2515147 L493.102523,95.2515147 L494.500933,94.7302501 L494.500933,94.7302501 L495.899578,94.2180881 L495.899578,94.2180881 L497.296523,93.7154696 L497.296523,93.7154696 L498.689833,93.222835 L498.689833,93.222835 L500.07757,92.7406251 L500.07757,92.7406251 L501.4578,92.2692805 C501.687105,92.1916529 501.916017,92.1144965 502.144495,92.0378203 L503.509833,91.5835998 C503.736415,91.5088814 503.962481,91.4346616 504.187993,91.3609496 L505.534085,90.9248446 L505.534085,90.9248446 L506.864926,90.5013675 L506.864926,90.5013675 L508.17858,90.0909589 L508.17858,90.0909589 L510.1126,89.5008132 L510.1126,89.5008132 L511.997062,88.9425502 L511.997062,88.9425502 L513.22261,88.5888219 L513.22261,88.5888219 L514.421291,88.2503653 L514.421291,88.2503653 L515.591171,87.9276209 L515.591171,87.9276209 L517.287753,87.473929 L517.287753,87.473929 L518.377159,87.1923932 L518.377159,87.1923932 L519.430987,86.9281121 L519.430987,86.9281121 L520.447302,86.6815261 L520.447302,86.6815261 L521.424169,86.453076 C521.583585,86.4165368 521.741276,86.3807716 521.897203,86.3457896 L522.811266,86.1453694 C522.959973,86.1135569 523.106835,86.082546 523.251811,86.0523458 L524.098715,85.8809471 L524.098715,85.8809471 L524.898426,85.7294467 C525.027671,85.7058793 525.154869,85.6831594 525.27998,85.6612961 L526.005273,85.5404696 L526.005273,85.5404696 C529.795273,84.4804696 531.335273,87.5704696 528.005273,89.8504696 C505.405273,105.03047 510.155273,115.63047 516.535273,110.74047 C517.265482,110.179011 518.033016,109.488647 518.83148,108.678203 L519.314219,108.177598 C519.800566,107.662725 520.297588,107.10526 520.803901,106.507108 L521.313261,105.895465 C521.398653,105.791287 521.484291,105.685997 521.570168,105.579604 L522.088244,104.928069 C522.17505,104.817296 522.262083,104.705437 522.349336,104.592501 L522.875437,103.902028 L522.875437,103.902028 L523.406505,103.186126 L523.406505,103.186126 L523.942231,102.445218 L523.942231,102.445218 L524.48231,101.679729 L524.48231,101.679729 L525.026435,100.890082 L525.026435,100.890082 L525.574297,100.0767 L525.574297,100.0767 L526.12559,99.240008 L526.12559,99.240008 L526.680007,98.3804291 L526.680007,98.3804291 L527.237241,97.4983871 L527.237241,97.4983871 L527.796985,96.5943057 C527.890468,96.4418124 527.984042,96.2884184 528.077702,96.1341326 L528.640635,95.1977866 L528.640635,95.1977866 L529.205309,94.2404605 C529.29955,94.0791814 529.39385,93.9170457 529.488204,93.7540623 L530.054916,92.7660606 L530.054916,92.7660606 L530.622603,91.758138 L530.622603,91.758138 L531.190956,90.7307184 L531.190956,90.7307184 L531.75967,89.6842255 L531.75967,89.6842255 L532.328437,88.6190829 L532.328437,88.6190829 L533.181016,86.9873278 L533.181016,86.9873278 L533.748573,85.8774149 L533.748573,85.8774149 L534.315108,84.7503354 L534.315108,84.7503354 L534.880314,83.606513 L534.880314,83.606513 L535.443885,82.4463714 L535.443885,82.4463714 L536.005513,81.2703344 L536.005513,81.2703344 L536.564891,80.0788256 L536.564891,80.0788256 L537.121712,78.8722688 C537.214285,78.6699456 537.306739,78.467013 537.399067,78.2634798 L537.951477,77.0351455 L537.951477,77.0351455 L538.500562,75.7928225 L538.500562,75.7928225 L539.046016,74.5369344 C539.136605,74.3265129 539.22703,74.1155438 539.317284,73.9040359 L539.856714,72.6285949 L539.856714,72.6285949 L540.391745,71.3406481 L540.391745,71.3406481 L540.922069,70.0406194 L540.922069,70.0406194 L541.44738,68.7289324 L541.44738,68.7289324 L541.96737,67.4060109 C542.053574,67.1846113 542.139544,66.9627613 542.225273,66.7404696 C542.415273,66.3104696 541.495273,66.2304696 541.065273,67.2304696 C540.634929,68.0994351 539.943466,69.137485 539.075376,70.2463128 L538.627004,70.8061697 L538.627004,70.8061697 L538.15154,71.3750922 C537.175087,72.5201822 536.05017,73.7032811 534.86128,74.8260824 L534.261895,75.3820031 C531.443537,77.9486028 528.353549,80.097711 526.065273,80.5804696 C516.825273,82.5340696 514.833657,75.0167576 523.347862,55.5479755 L523.944693,54.2020096 C524.660079,52.6100416 525.442409,50.9420942 526.293322,49.1969189 L527.039511,47.6821122 C527.166687,47.4264826 527.295273,47.1692696 527.425273,46.9104696 C527.790658,46.122008 527.139031,45.6386501 526.617197,46.4205117 L526.450255,46.6840326 L526.450255,46.6840326 L526.327587,46.8889246 L526.327587,46.8889246 L526.111621,47.2707987 L526.111621,47.2707987 L525.670744,48.0947601 L525.670744,48.0947601 L525.135698,49.1348069 L525.135698,49.1348069 L524.103896,51.195649 L524.103896,51.195649 L519.234177,61.09094 L519.234177,61.09094 L517.768163,64.0320618 L517.067243,65.4243672 L517.067243,65.4243672 L516.125353,67.2780696 L515.045831,69.3740303 L515.045831,69.3740303 L514.239244,70.9165848 L514.239244,70.9165848 L513.705101,71.925385 L513.705101,71.925385 L513.175148,72.915069 L513.175148,72.915069 L512.390552,74.3572632 L512.390552,74.3572632 L511.876031,75.2861789 L511.876031,75.2861789 L511.36967,76.1855962 L511.36967,76.1855962 L510.872601,77.0525489 L510.872601,77.0525489 L510.385959,77.8840705 L510.385959,77.8840705 L509.910878,78.6771949 C509.832724,78.8060177 509.7551,78.933117 509.678027,79.0584311 L509.222415,79.7883976 L509.222415,79.7883976 L508.781199,80.4725511 C508.347559,81.1328092 507.937216,81.7198982 507.555273,82.2204696 C502.486473,88.8336696 492.144735,88.9880106 494.849305,72.563274 L494.986414,71.7727836 L494.986414,71.7727836 L495.101113,71.1648329 C495.121597,71.0599507 495.142761,70.9533107 495.1646,70.8449443 L495.303674,70.1742808 L495.303674,70.1742808 L495.458649,69.4636891 L495.458649,69.4636891 L495.629242,68.7146737 L495.629242,68.7146737 L495.913805,67.5223967 L495.913805,67.5223967 L496.231931,66.2521281 L496.231931,66.2521281 L496.582674,64.9089452 L496.582674,64.9089452 L496.965086,63.4979252 L496.965086,63.4979252 L497.37822,62.0241452 L497.37822,62.0241452 L497.670243,61.0092659 L497.670243,61.0092659 L498.132474,59.4421686 L498.132474,59.4421686 L498.6229,57.8258506 L498.6229,57.8258506 L499.140574,56.1653889 L499.140574,56.1653889 L499.684548,54.4658609 L499.684548,54.4658609 L500.253875,52.7323437 L500.253875,52.7323437 L500.847607,50.9699145 L500.847607,50.9699145 L501.464796,49.1836504 L501.464796,49.1836504 L501.88882,47.9820734 L501.88882,47.9820734 L502.322568,46.7736641 L502.322568,46.7736641 L502.765759,45.5599267 L502.765759,45.5599267 L503.447636,43.7326213 L503.447636,43.7326213 L503.913206,42.5121454 L503.913206,42.5121454 L504.387237,41.2916068 L504.387237,41.2916068 L504.869448,40.0725097 L504.869448,40.0725097 L505.359557,38.8563585 L505.359557,38.8563585 L505.857285,37.6446576 C505.940859,37.4431619 506.024739,37.2419143 506.108918,37.0409462 L506.617547,35.8387414 L506.617547,35.8387414 L507.133092,34.6447477 L507.133092,34.6447477 L507.655273,33.4604696 L507.655273,33.4604696 C499.404969,35.278426 491.268952,37.5789428 483.289141,40.34999 L481.695273,40.9104696 C478.455273,42.1204696 477.875273,35.6504696 483.195273,33.6504696 L483.781318,33.4354277 C483.882379,33.3994911 483.985119,33.363508 484.089517,33.3274809 L484.735634,33.11081 L484.735634,33.11081 L485.42053,32.8932018 L485.42053,32.8932018 L486.14319,32.6747751 L486.14319,32.6747751 L486.902599,32.4556489 L486.902599,32.4556489 L487.697742,32.2359419 L487.697742,32.2359419 L488.527604,32.0157731 L488.527604,32.0157731 L489.835273,31.684914 L489.835273,31.684914 L491.215351,31.3536846 L491.215351,31.3536846 L492.173937,31.1328574 L492.173937,31.1328574 L493.66708,30.8019023 L493.66708,30.8019023 L494.697871,30.5816295 L494.697871,30.5816295 L495.755767,30.3617865 L495.755767,30.3617865 L496.839754,30.1424921 L496.839754,30.1424921 L497.948817,29.9238654 L497.948817,29.9238654 L499.657207,29.5974371 L499.657207,29.5974371 L500.824517,29.3809994 L500.824517,29.3809994 L502.61552,29.058412 L502.61552,29.058412 L503.834734,28.8449064 L503.834734,28.8449064 L505.072932,28.6327817 L505.072932,28.6327817 L506.963606,28.3174439 L506.963606,28.3174439 L508.891286,28.0058819 L508.891286,28.0058819 L510.195273,27.8004696 L510.195273,27.8004696 C511.827357,24.3886875 513.688268,21.0911664 515.765273,17.9304696 Z M475.455273,68.0304696 C470.375273,52.7404696 481.895273,39.5404696 495.045273,46.4104696 C499.987802,49.0102397 496.800496,57.9712147 490.274279,57.4331184 L490.045273,57.4104696 L488.935273,56.6304696 C494.495273,50.3004696 487.825273,45.7004696 484.675273,50.4404696 C483.019133,52.9387152 483.559755,55.7741969 484.780765,59.0477703 L485.017308,59.6667238 C485.057937,59.7707466 485.099138,59.8752033 485.140865,59.9800972 L485.529348,60.9360251 L485.529348,60.9360251 L486.647052,63.6043415 L486.647052,63.6043415 L486.933025,64.2993061 L486.933025,64.2993061 L487.217176,65.0057204 L487.217176,65.0057204 L487.497281,65.7237321 L487.497281,65.7237321 L487.771121,66.453489 L487.771121,66.453489 L488.036474,67.1951387 C488.079869,67.3197463 488.122817,67.4448555 488.165273,67.5704696 C491.985273,78.8804696 491.405273,84.9804696 486.465273,90.8804696 C474.035273,105.68047 450.765273,100.00047 458.795273,84.6904696 C461.515273,79.4204696 466.345273,75.6404696 474.515273,76.5604696 C475.100273,77.2879696 474.785273,77.6892196 474.342305,77.9667196 L474.190968,78.054914 L474.190968,78.054914 L473.885273,78.2104696 C472.212852,79.0416275 470.719135,80.5052685 469.513278,82.2240996 L469.217874,82.6589054 C469.121447,82.8054673 469.027083,82.953583 468.934843,83.1030342 L468.664565,83.5551758 C468.620602,83.6311277 468.577187,83.7073589 468.534326,83.783842 L468.283887,84.2455465 C468.202669,84.4003104 468.123735,84.555864 468.047147,84.7119888 L467.824486,85.1818586 C467.573075,85.7315302 467.351182,86.2855252 467.161515,86.8344824 L467.006899,87.303565 C465.809686,91.1207643 466.229484,94.5600485 469.195273,94.4104696 C471.955273,94.3204696 476.065273,91.5604696 478.195273,86.8704696 C479.685004,83.5579394 479.172395,79.7319888 478.047693,75.7857068 L477.822739,75.0205132 C477.784097,74.8927657 477.744912,74.7649194 477.705229,74.6369875 L477.461546,73.8684737 L477.461546,73.8684737 L477.208176,73.0985382 L477.208176,73.0985382 L476.947359,72.3278143 L476.947359,72.3278143 L476.547072,71.1716357 L476.547072,71.1716357 L476.133013,69.9897996 C475.903273,69.3341696 475.675273,68.6804696 475.455273,68.0304696 Z M553.565273,81.1404696 C555.890673,80.5266696 558.539748,79.9331976 561.442701,79.3668683 L563.050888,79.0606942 C563.595063,78.9595608 564.147211,78.8593656 564.706913,78.7601496 L566.408261,78.4654801 L566.408261,78.4654801 L568.152412,78.1769317 L568.152412,78.1769317 L569.936852,77.8947499 L569.936852,77.8947499 L571.759061,77.6191806 C572.06577,77.5738171 572.373948,77.5287393 572.683543,77.4839525 L574.557688,77.2187627 C575.187789,77.1315569 575.823136,77.0455557 576.463311,76.9607998 L578.397893,76.7103096 C578.722597,76.6691976 579.048403,76.6284072 579.375258,76.5879435 L581.348562,76.349123 C581.679405,76.3099867 582.011192,76.2711873 582.343872,76.2327301 L584.350233,76.0061323 C585.022308,75.9319953 585.697532,75.8592677 586.375486,75.7879902 L588.417113,75.5785496 L588.417113,75.5785496 L590.472599,75.3780561 L590.472599,75.3780561 L592.539424,75.1867557 L592.539424,75.1867557 L594.615074,75.0048939 L594.615074,75.0048939 L596.697029,74.8327166 L596.697029,74.8327166 L598.782773,74.6704696 L598.782773,74.6704696 L600.86979,74.5183985 L600.86979,74.5183985 L602.955561,74.3767493 C603.650331,74.3312971 604.344474,74.2876229 605.03757,74.2457675 L607.1133,74.125699 C608.149176,74.0684341 609.181753,74.0153537 610.209615,73.9665963 L612.258634,73.8748862 L612.258634,73.8748862 L614.292563,73.7949496 L614.292563,73.7949496 L616.308887,73.7270321 C616.643334,73.7167278 616.976942,73.7069345 617.309659,73.6976574 L619.294853,73.6482296 C628.834229,73.4396616 637.536138,73.673796 644.121619,74.4755045 L644.795273,74.5604696 L644.795273,74.5304696 C646.669227,74.7795394 646.414365,76.3118379 645.2406,78.0435107 L645.024173,78.350949 L645.024173,78.350949 L644.790145,78.661203 L644.790145,78.661203 L644.539995,78.9729489 C644.454089,79.0769657 644.365742,79.1810107 644.275201,79.284863 L643.997239,79.5956218 L643.997239,79.5956218 L643.707588,79.9039016 L643.707588,79.9039016 L643.407725,80.2083787 L643.407725,80.2083787 L643.099127,80.5077294 C643.047049,80.5571205 642.994667,80.6062428 642.942015,80.6550688 L642.623086,80.9442482 L642.623086,80.9442482 L642.299118,81.2249921 L642.299118,81.2249921 L641.971586,81.4959768 C641.916783,81.5402542 641.861892,81.5840697 641.806946,81.6273959 L641.476841,81.8812601 L641.476841,81.8812601 L641.146867,82.122056 C641.091965,82.1610261 641.037129,82.1993965 640.982392,82.2371397 L640.655385,82.4558513 C640.546939,82.5260992 640.43913,82.5936174 640.332204,82.6581855 L640.014326,82.8428186 C639.12258,83.3396191 638.312483,83.60733 637.735273,83.5104696 C629.869673,82.0096696 620.206953,81.2912056 610.133528,81.1188203 L608.240286,81.0928397 C607.607826,81.0862742 606.974101,81.0817841 606.339449,81.0793118 L604.433048,81.0778905 C604.114963,81.0786432 603.796732,81.079886 603.478395,81.0816116 L601.567456,81.0977012 C601.248869,81.1013292 600.930262,81.1054255 600.611677,81.1099831 L598.700768,81.1428049 L598.700768,81.1428049 L596.79242,81.186349 L596.79242,81.186349 L594.888661,81.2402693 L594.888661,81.2402693 L592.991523,81.3042196 C592.360473,81.3271696 591.730865,81.3517336 591.103038,81.3778539 L589.225235,81.4608261 L589.225235,81.4608261 L587.360146,81.5527902 L587.360146,81.5527902 L585.509802,81.6534001 C585.202753,81.6708696 584.896403,81.688685 584.590794,81.706839 L582.766375,81.8197686 L582.766375,81.8197686 L580.961777,81.9404787 L580.961777,81.9404787 L579.179032,82.0686233 L579.179032,82.0686233 L577.420171,82.2038564 L577.420171,82.2038564 L575.687224,82.3458317 L575.687224,82.3458317 L573.982223,82.4942033 L573.982223,82.4942033 L572.307198,82.648625 C572.030638,82.6748469 571.755411,82.7013065 571.481561,82.7279965 L569.855308,82.8908446 L569.855308,82.8908446 L568.264109,83.0588777 L568.264109,83.0588777 L566.709993,83.2317496 C566.454177,83.2609456 566.199991,83.2903288 565.947477,83.319892 L564.452796,83.4993733 L564.452796,83.4993733 L563.000277,83.6828283 L563.000277,83.6828283 L561.59195,83.869911 L561.59195,83.869911 L560.229847,84.0602751 L560.229847,84.0602751 L558.915997,84.2535747 L558.915997,84.2535747 L557.652433,84.4494636 L557.652433,84.4494636 L556.441185,84.6475958 L556.441185,84.6475958 L555.284283,84.8476253 L555.284283,84.8476253 L554.183759,85.0492058 L554.183759,85.0492058 L553.627456,85.1554259 L553.627456,85.1554259 L552.23508,85.4855133 L552.23508,85.4855133 L552.205273,85.4904696 C549.015273,86.1404696 547.275273,82.7804696 553.565273,81.1404696 Z M433.6875,42.7079305 C437.664151,42.7079305 441.47263,43.5327768 445.112936,45.1824693 L445.631836,45.4237508 L442.441406,53.6239461 L441.729492,53.2987508 C440.542969,52.7714071 439.356445,52.3173055 438.169922,51.9364461 C436.746094,51.4794149 435.216797,51.2508993 433.582031,51.2508993 C431.103516,51.2508993 429.169922,52.266036 427.78125,54.2963094 C426.392578,56.3265829 425.698242,59.1258993 425.698242,62.6942586 C425.698242,70.1122274 428.519531,73.8212118 434.162109,73.8212118 C435.867188,73.8212118 437.519531,73.5839071 439.119141,73.1092977 C440.452148,72.7137899 441.79126,72.2511434 443.136475,71.7213583 L443.944336,71.3954305 L443.944336,80.2020711 L443.458652,80.410306 C440.362617,81.6953109 436.88584,82.3378133 433.02832,82.3378133 C427.209961,82.3378133 422.749512,80.6503133 419.646973,77.2753133 C416.544434,73.9003133 414.993164,69.0223836 414.993164,62.6415243 C414.993164,58.6512899 415.744629,55.144454 417.247559,52.1210165 C418.750488,49.097579 420.912598,46.7728719 423.733887,45.1468954 C426.555176,43.5209188 429.873047,42.7079305 433.6875,42.7079305 Z M326.926758,42.6551961 C333.061523,42.6551961 337.710938,44.3339071 340.875,47.691329 C344.039062,51.0487508 345.621094,55.9794149 345.621094,62.4833211 C345.621094,68.9696493 344.030273,73.9003133 340.848633,77.2753133 C337.666992,80.6503133 333.008789,82.3378133 326.874023,82.3378133 C320.827148,82.3378133 316.190918,80.6415243 312.965332,77.2489461 C309.739746,73.856368 308.126953,68.9169149 308.126953,62.4305868 C308.126953,56.0145711 309.730957,51.1146688 312.938965,47.7308797 C316.146973,44.3470907 320.80957,42.6551961 326.926758,42.6551961 Z M132.758789,42.7079305 C136.567649,42.7079305 140.448583,43.5487932 144.401591,45.2305186 L144.966797,45.4764852 L141.776367,53.5184774 L141.288029,53.2982787 C137.89102,51.7927341 134.942472,51.0399618 132.442383,51.0399618 C131.088867,51.0399618 130.104492,51.2772665 129.489258,51.7518758 C128.874023,52.2264852 128.566406,52.8153524 128.566406,53.5184774 C128.566406,54.2743368 128.95752,54.9510946 129.739746,55.5487508 L129.927881,55.6843535 L129.927881,55.6843535 L130.157047,55.8350232 L130.157047,55.8350232 L130.427244,56.0007598 C130.475696,56.0296381 130.525857,56.0591442 130.577728,56.0892782 L131.090728,56.3774339 L131.090728,56.3774339 L131.484016,56.5883714 L131.484016,56.5883714 L132.150881,56.9330282 L132.150881,56.9330282 L133.18364,57.445305 L133.18364,57.445305 L134.065915,57.8690633 L134.065915,57.8690633 L135.385889,58.4868089 L135.385889,58.4868089 L136.107422,58.8182821 C139.429688,60.3124227 141.736816,61.9164266 143.028809,63.6302938 C144.320801,65.344161 144.966797,67.5018758 144.966797,70.1034383 C144.966797,72.4940633 144.360352,74.6166219 143.147461,76.4711141 C141.93457,78.3256063 140.185547,79.7670126 137.900391,80.7953329 C135.615234,81.8236532 132.93457,82.3378133 129.858398,82.3378133 C127.291992,82.3378133 125.138672,82.1576376 123.398438,81.797286 C121.832227,81.4729696 120.209063,80.9315194 118.528945,80.1729354 L117.966797,79.9120321 L117.966797,70.6307821 L118.631836,70.9623251 C120.413086,71.8243042 122.256836,72.5092001 124.163086,73.0170126 C126.307617,73.5883016 128.276367,73.8739461 130.069336,73.8739461 C131.616211,73.8739461 132.75,73.6058797 133.470703,73.0697469 C134.191406,72.5336141 134.551758,71.8436727 134.551758,70.9999227 C134.551758,70.472579 134.406738,70.0111532 134.116699,69.6156454 C133.82666,69.2201376 133.36084,68.8202352 132.719238,68.4159383 L132.523998,68.2987983 L132.523998,68.2987983 L132.278665,68.1618681 L132.278665,68.1618681 L131.816739,67.9193667 L131.816739,67.9193667 L131.446172,67.7329615 L131.446172,67.7329615 L130.554757,67.3007811 L130.554757,67.3007811 L129.7547,66.9246969 L129.7547,66.9246969 L128.23688,66.228854 L127.59082,65.9374227 L127.59082,65.9374227 C125.077148,64.7948446 123.191895,63.6874227 121.935059,62.6151571 C120.678223,61.5428915 119.746582,60.3124227 119.140137,58.9237508 C118.533691,57.535079 118.230469,55.8915243 118.230469,53.9930868 C118.230469,50.4423055 119.522461,47.6737508 122.106445,45.6874227 C124.69043,43.7010946 128.241211,42.7079305 132.758789,42.7079305 Z M836.868164,43.2616415 L837.295759,43.2637789 C847.487258,43.3663779 852.583008,47.1625404 852.583008,54.6522665 C852.583008,59.002627 850.513666,62.3934138 846.374983,64.8246269 L846.043945,65.0145711 L857.276367,81.8104696 L845.463867,81.8104696 L837.290039,67.7831258 L834.65332,67.7831258 L834.65332,81.8104696 L824.238281,81.8104696 L824.238281,43.2616415 L836.868164,43.2616415 Z M807.336914,43.1034383 L820.072266,81.8104696 L808.681641,81.8104696 L806.783203,74.5858602 L794.258789,74.5858602 L792.307617,81.8104696 L781.523438,81.8104696 L781.079,81.147 L793.441406,43.1034383 L807.336914,43.1034383 Z M703.766602,43.2616415 L703.766602,81.8104696 L693.298828,81.8104696 L693.298828,43.2616415 L703.766602,43.2616415 Z M161.393555,43.2616415 L161.393555,60.0048055 L161.577906,59.6571385 L161.577906,59.6571385 L161.7979,59.2691537 L161.7979,59.2691537 L162.053538,58.8408512 L162.053538,58.8408512 L162.344819,58.3722311 L162.344819,58.3722311 L162.671742,57.8632932 L162.671742,57.8632932 L163.228959,57.0242908 L163.228959,57.0242908 L163.644991,56.4145587 L163.644991,56.4145587 L164.33587,55.4243649 L164.33587,55.4243649 L164.583984,55.0741415 L172.678711,43.2616415 L184.069336,43.2616415 L171.914062,60.5321493 L183.858398,81.8104696 L172.098633,81.8104696 L164.478516,67.0712118 L161.393555,68.9169149 L161.393555,81.8104696 L150.925781,81.8104696 L150.925781,43.2616415 L161.393555,43.2616415 Z M210.911133,43.2616415 L210.911133,51.6200399 L198.439453,51.6200399 L198.439453,57.684493 L209.988281,57.684493 L209.988281,66.0428915 L198.439453,66.0428915 L198.439453,73.3202352 L210.911133,73.3202352 L210.911133,81.8104696 L188.024414,81.8104696 L188.024414,43.2616415 L210.911133,43.2616415 Z M228.076172,43.2616415 L228.076172,73.3993368 L242.920898,73.3993368 L242.920898,81.8104696 L217.661133,81.8104696 L217.661133,43.2616415 L228.076172,43.2616415 Z M271.977539,43.2616415 L271.977539,51.6200399 L259.505859,51.6200399 L259.505859,57.684493 L271.054688,57.684493 L271.054688,66.0428915 L259.505859,66.0428915 L259.505859,73.3202352 L271.977539,73.3202352 L271.977539,81.8104696 L249.09082,81.8104696 L249.09082,43.2616415 L271.977539,43.2616415 Z M305.121094,43.2616415 L305.121094,51.778243 L295.734375,51.778243 L295.734375,81.8104696 L285.319336,81.8104696 L285.319336,51.778243 L275.90625,51.778243 L275.90625,43.2616415 L305.121094,43.2616415 Z M761.115234,43.2616415 L761.542829,43.2637789 C771.734328,43.3663779 776.830078,47.1625404 776.830078,54.6522665 C776.830078,59.002627 774.760736,62.3934138 770.622053,64.8246269 L770.291016,65.0145711 L781.079,81.147 L780.864258,81.8104696 L769.710938,81.8104696 L761.537109,67.7831258 L758.900391,67.7831258 L758.900391,81.8104696 L748.485352,81.8104696 L748.485352,43.2616415 L761.115234,43.2616415 Z M98.9824219,43.2616415 L98.9824219,51.6200399 L86.5107422,51.6200399 L86.5107422,57.684493 L98.0595703,57.684493 L98.0595703,66.0428915 L86.5107422,66.0428915 L86.5107422,73.3202352 L98.9824219,73.3202352 L98.9824219,81.8104696 L76.0957031,81.8104696 L76.0957031,43.2616415 L98.9824219,43.2616415 Z M366.1875,43.2616415 L380.214844,70.050704 L380.373047,70.050704 L380.261844,68.2001522 L380.261844,68.2001522 L380.168986,66.4417288 L380.168986,66.4417288 L380.096764,64.8115371 L380.096764,64.8115371 L380.060079,63.7959824 L380.060079,63.7959824 L380.032566,62.8374197 L380.032566,62.8374197 L380.014224,61.9358489 C380.011931,61.7903364 380.01002,61.6471986 380.008492,61.5064354 L380.003906,60.6903524 L380.003906,43.2616415 L389.285156,43.2616415 L389.285156,81.8104696 L375.626953,81.8104696 L361.546875,54.6522665 L361.30957,54.6522665 L361.431737,56.2721289 L361.431737,56.2721289 L361.568108,58.2714495 L361.568108,58.2714495 L361.6505,59.6505681 L361.6505,59.6505681 L361.715844,60.9265107 L361.715844,60.9265107 L361.764143,62.0992773 L361.764143,62.0992773 L361.795394,63.168868 L361.795394,63.168868 L361.806759,63.8246085 L361.806759,63.8246085 L361.810547,64.434493 L361.810547,81.8104696 L352.582031,81.8104696 L352.582031,43.2616415 L366.1875,43.2616415 Z M408.084961,43.2616415 L408.084961,81.8104696 L397.617188,81.8104696 L397.617188,43.2616415 L408.084961,43.2616415 Z M725.545898,43.2616415 L726.082977,43.2644161 C731.050793,43.3162099 734.760927,44.0931171 737.213379,45.5951376 C739.753418,47.1508016 741.023438,49.5721883 741.023438,52.8592977 C741.023438,55.0214071 740.469727,56.8671102 739.362305,58.3964071 C738.320025,59.8357453 736.966327,60.7923846 735.30121,61.2663249 L734.985352,61.3495321 L734.985352,61.613204 L735.357341,61.7166276 C737.556408,62.3582048 739.163857,63.3784178 740.179688,64.7772665 C741.251953,66.253829 741.788086,68.1698446 741.788086,70.5253133 C741.788086,74.0233602 740.474121,76.7787313 737.846191,78.7914266 C735.312116,80.73224 731.891327,81.737304 727.583823,81.8066188 L727.101562,81.8104696 L712.098633,81.8104696 L712.098633,43.2616415 L725.545898,43.2616415 Z M45.1933594,43.2616415 L45.1933594,57.5526571 L57.2958984,57.5526571 L57.2958984,43.2616415 L67.7636719,43.2616415 L67.7636719,81.8104696 L57.2958984,81.8104696 L57.2958984,66.0956258 L45.1933594,66.0956258 L45.1933594,81.8104696 L34.7255859,81.8104696 L34.7255859,43.2616415 L45.1933594,43.2616415 Z M867.955078,43.2616415 L874.546875,57.5526571 L881.191406,43.2616415 L892.476562,43.2616415 L879.793945,66.7548055 L879.793945,81.8104696 L869.299805,81.8104696 L869.299805,67.0712118 L856.617188,43.2616415 L867.955078,43.2616415 Z M29.2148438,43.2616415 L29.2148438,51.778243 L19.828125,51.778243 L19.828125,81.8104696 L9.41308594,81.8104696 L9.41308594,51.778243 L0,51.778243 L0,43.2616415 L29.2148438,43.2616415 Z M672.28418,43.2616415 L672.28418,73.3993368 L687.128906,73.3993368 L687.128906,81.8104696 L661.869141,81.8104696 L661.869141,43.2616415 L672.28418,43.2616415 Z M725.967773,65.6737508 L722.513672,65.6737508 L722.513672,73.7684774 L726.178711,73.7684774 C729.430664,73.7684774 731.056641,72.3973836 731.056641,69.6551961 C731.056641,68.371993 730.621582,67.387618 729.751465,66.7020711 C728.939355,66.0622274 727.786543,65.7209774 726.293027,65.6783211 L725.967773,65.6737508 Z M326.926758,51.1981649 C321.706055,51.1981649 319.095703,54.9598836 319.095703,62.4833211 C319.095703,69.9364461 321.688477,73.6630086 326.874023,73.6630086 C329.510742,73.6630086 331.466309,72.7577352 332.740723,70.9471883 C334.015137,69.1366415 334.652344,66.3153524 334.652344,62.4833211 C334.652344,58.6337118 334.006348,55.7904501 332.714355,53.953536 C331.422363,52.1166219 329.493164,51.1981649 326.926758,51.1981649 Z M583.695273,9.47046958 C590.145273,-0.209530416 600.145273,-2.28953042 603.145273,2.41046958 C604.501273,4.53446958 603.943673,7.95446958 601.830233,12.3555896 L601.501593,13.0230766 C601.27478,13.4729211 601.032588,13.9324193 600.775374,14.4012565 L600.378331,15.1114769 L600.378331,15.1114769 L599.959023,15.8354696 C599.887298,15.9572696 599.814657,16.0796336 599.741105,16.2025567 L599.288904,16.9467647 L599.288904,16.9467647 L598.81511,17.7041546 C598.734359,17.8314716 598.652721,17.959328 598.570199,18.0877189 L598.064518,18.8644385 L598.064518,18.8644385 L597.537913,19.6537496 C597.448417,19.7863376 597.358061,19.9194404 597.266849,20.0530531 L596.709364,20.8608083 C596.614755,20.9964409 596.519302,21.1325734 596.42301,21.2692011 L595.835248,22.0948693 L595.835248,22.0948693 L595.227636,22.9321841 C595.124728,23.0726941 595.021005,23.2136794 594.916471,23.3551353 L594.279588,24.2094775 L594.279588,24.2094775 L593.623526,25.0748759 L593.623526,25.0748759 L592.948555,25.9510946 C592.834498,26.0980196 592.719665,26.2453856 592.604061,26.3931877 L591.901227,27.2851937 L591.901227,27.2851937 L591.180153,28.1874296 L591.180153,28.1874296 L590.441109,29.099659 L590.441109,29.099659 L589.684361,30.0216459 L589.684361,30.0216459 L588.910178,30.9531541 L588.910178,30.9531541 L587.716802,32.3677521 L587.716802,32.3677521 L586.900207,33.3220303 L586.900207,33.3220303 L586.067117,34.2850031 L586.067117,34.2850031 L584.78714,35.7452485 L584.78714,35.7452485 L583.471557,37.2237285 C583.323436,37.3889876 583.174673,37.5545696 583.025273,37.7204696 L582.755475,38.0111006 L582.755475,38.0111006 L582.473529,38.3030959 L582.473529,38.3030959 L582.029116,38.7478418 L582.029116,38.7478418 L580.731889,40.0191567 L580.731889,40.0191567 L580.385273,40.3667659 L580.385273,40.3667659 L580.030907,40.7301228 L580.030907,40.7301228 L579.669377,41.1111453 L579.669377,41.1111453 L579.301268,41.5117513 C579.239401,41.5802574 579.177284,41.6496595 579.114929,41.7199974 L578.738052,42.1535743 C578.421775,42.5247796 578.100173,42.9213786 577.774771,43.3483656 L577.382562,43.8756558 C576.201052,45.5032031 574.978215,47.5504696 573.785273,50.2504696 C572.84765,52.7659582 572.056328,55.3335805 571.415273,57.9404696 L571.277938,58.5395981 L571.277938,58.5395981 L571.114472,59.3258223 L571.114472,59.3258223 L571.007423,59.9031124 L571.007423,59.9031124 L570.94381,60.2808276 L570.94381,60.2808276 L570.860485,60.8350161 L570.860485,60.8350161 L570.792232,61.3723425 L570.792232,61.3723425 L570.739679,61.8905561 L570.739679,61.8905561 L570.713676,62.224302 L570.713676,62.224302 L570.688685,62.7056591 L570.688685,62.7056591 L570.681637,63.01275 L570.681637,63.01275 L570.682496,63.3080117 C570.683309,63.3561992 570.684459,63.403866 570.68595,63.4509983 L570.69902,63.7272659 C570.701891,63.7722044 570.70511,63.8165804 570.708683,63.8603803 L570.734381,64.1161533 L570.734381,64.1161533 L570.768732,64.3574295 L570.768732,64.3574295 L570.81192,64.5835421 C570.819864,64.6199268 570.828185,64.655652 570.836886,64.6907036 L570.893679,64.8928203 C571.251923,66.0233926 572.084986,66.2948876 573.559005,65.1116066 L573.818004,64.8943964 L573.818004,64.8943964 L574.089746,64.6480176 C574.136109,64.6044867 574.18301,64.5597126 574.230454,64.5136815 L574.52166,64.2222993 C574.67055,64.0689548 574.824393,63.9040468 574.983293,63.7272002 L575.307869,63.3574778 C575.3631,63.2931673 575.4189,63.2275026 575.475273,63.1604696 L575.665735,62.9264845 C575.699316,62.883881 575.733801,62.8395004 575.76917,62.7933813 L575.991833,62.4961142 L575.991833,62.4961142 L576.363458,61.9760435 L576.363458,61.9760435 L576.77728,61.3725397 L576.77728,61.3725397 L577.38893,60.4489148 L577.38893,60.4489148 L577.888266,59.6751054 L577.888266,59.6751054 L578.60185,58.5471539 L578.60185,58.5471539 L579.168574,57.63716 L579.168574,57.63716 L580.163317,56.0171104 L580.163317,56.0171104 L581.851237,53.2205822 L581.851237,53.2205822 L582.942348,51.3902341 L582.942348,51.3902341 L584.766389,48.303178 L584.766389,48.303178 L590.897872,37.8388425 L590.897872,37.8388425 L591.752684,36.4124892 L591.752684,36.4124892 L592.115273,35.8304696 L592.115273,35.8304696 C595.538648,30.5264696 600.693314,28.2298758 604.36922,27.8266272 L604.794663,27.7878542 C606.676716,27.652079 608.109023,28.0347196 608.615273,28.7704696 C608.269473,28.9062696 607.674361,29.6288936 606.925895,30.770299 L606.596015,31.2846225 C606.539563,31.3744531 606.482399,31.4662978 606.424557,31.5600955 L606.069657,32.1458264 L606.069657,32.1458264 L605.700175,32.7754879 C605.637472,32.8839291 605.574233,32.9940782 605.51049,33.1058741 L605.122283,33.7959198 L605.122283,33.7959198 L604.72369,34.5225473 L604.72369,34.5225473 L604.316391,35.2828171 L604.316391,35.2828171 L603.902063,36.0737896 C603.832516,36.2080136 603.762747,36.3433944 603.692789,36.4798707 L603.271066,37.3113857 L603.271066,37.3113857 L602.846512,38.1662546 L602.846512,38.1662546 L602.420805,39.0415379 L602.420805,39.0415379 L601.995623,39.934296 L601.995623,39.934296 L601.572645,40.8415895 L601.572645,40.8415895 L601.153549,41.7604789 C601.084117,41.9144301 601.014916,42.0687421 600.945982,42.2233534 L600.535857,43.1541249 L600.535857,43.1541249 L600.133812,44.0891435 L600.133812,44.0891435 L599.741523,45.0254696 L599.741523,45.0254696 L599.360671,45.9601637 L599.360671,45.9601637 L598.992934,46.8902862 L598.992934,46.8902862 L598.639989,47.8128977 L598.639989,47.8128977 L598.303516,48.7250587 C598.248903,48.8760513 598.195046,49.0264861 598.141981,49.1763016 L597.833363,50.0672751 C595.892698,55.8039396 595.261873,60.4125696 598.015273,60.2604696 C598.915049,60.2135033 599.946807,59.5017321 601.09469,58.2514271 L601.410616,57.8971776 C601.570007,57.7134717 601.73153,57.5199652 601.895145,57.3169782 L602.225154,56.8984587 L602.225154,56.8984587 L602.560671,56.4552273 L602.560671,56.4552273 L602.901624,55.9878532 C602.958899,55.9079772 603.016397,55.827119 603.074117,55.7452905 L603.423091,55.2427696 L603.423091,55.2427696 L603.777323,54.7175291 L603.777323,54.7175291 L604.136741,54.1701382 L604.136741,54.1701382 L604.501274,53.6011661 L604.501274,53.6011661 L605.057507,52.7084884 L605.057507,52.7084884 L605.434514,52.0880536 L605.434514,52.0880536 L605.816385,51.4480298 L605.816385,51.4480298 L606.398157,50.4525101 L606.398157,50.4525101 L606.990472,49.4161171 L606.990472,49.4161171 L607.593089,48.3407719 L607.593089,48.3407719 L608.412186,46.8497064 L608.412186,46.8497064 L609.460338,44.9002342 L609.460338,44.9002342 L610.752255,42.4470019 L610.752255,42.4470019 L612.30412,39.4473252 L612.30412,39.4473252 L614.365273,35.4104696 L614.365273,35.4104696 C617.605273,29.0204696 624.725273,26.1204696 629.315273,28.7804696 L629.27428,28.8307581 L629.27428,28.8307581 L629.177401,28.9622009 L629.177401,28.9622009 L629.061333,29.1337034 L629.061333,29.1337034 L628.926873,29.3439518 L628.926873,29.3439518 L628.774819,29.5916324 L628.774819,29.5916324 L628.515497,30.0304648 L628.515497,30.0304648 L628.32295,30.3659782 L628.32295,30.3659782 L627.778578,31.3455367 L627.778578,31.3455367 L627.284856,32.2631423 L627.284856,32.2631423 L626.884791,33.0225919 L626.884791,33.0225919 L626.316792,34.1217554 L626.316792,34.1217554 L625.403666,35.9346463 L625.403666,35.9346463 L624.763473,37.2373437 L624.763473,37.2373437 L624.105575,38.6030621 L624.105575,38.6030621 L623.436356,40.0212915 L623.436356,40.0212915 L622.930852,41.1131014 L622.930852,41.1131014 L622.257182,42.5979354 L622.257182,42.5979354 L621.755672,43.7276286 L621.755672,43.7276286 L621.31998,44.7278397 L620.910922,45.6845827 L620.910922,45.6845827 L620.246805,47.279795 L620.246805,47.279795 L619.735612,48.5495975 L619.735612,48.5495975 L619.366404,49.4941845 L619.366404,49.4941845 L619.127899,50.118765 L619.127899,50.118765 L618.782765,51.0459904 L618.782765,51.0459904 L618.561774,51.6565854 L618.561774,51.6565854 L618.348608,52.260236 L618.348608,52.260236 L618.143737,52.8561706 L618.143737,52.8561706 L617.947629,53.4436177 L617.947629,53.4436177 L617.760752,54.0218058 L617.760752,54.0218058 L617.583576,54.5899633 L617.583576,54.5899633 L617.416569,55.1473186 L617.416569,55.1473186 L617.260199,55.6931003 L617.260199,55.6931003 L617.114936,56.2265367 L617.114936,56.2265367 L616.981248,56.7468563 C616.959957,56.8324403 616.939168,56.9174456 616.918891,57.0018562 L616.803444,57.5010539 L616.803444,57.5010539 L616.700743,57.985206 L616.700743,57.985206 L616.611258,58.4535408 C616.597471,58.5302357 616.584255,58.6062393 616.571618,58.6815357 L616.502834,59.124698 C616.492556,59.197101 616.482878,59.2687646 616.473809,59.3396727 L616.426781,59.7559266 C616.215793,61.926224 616.648643,63.2899755 618.045273,63.3204696 C617.004903,67.4525066 610.367725,68.2707714 607.739684,67.1556455 L607.492737,67.0433013 L607.492737,67.0433013 L607.285923,66.9414174 L607.285923,66.9414174 L607.078367,66.8288421 C607.043818,66.8091468 607.009317,66.7889745 606.974903,66.7683098 L606.769789,66.6382846 C605.447478,65.753068 604.378465,64.0708951 605.905273,60.6604696 C606.067773,60.2979696 606.231992,59.9475008 606.395703,59.6093563 L606.721788,58.9495863 L606.721788,58.9495863 L607.042561,58.3232018 L607.042561,58.3232018 L607.652335,57.1726723 L607.652335,57.1726723 L608.193359,56.1619344 L608.193359,56.1619344 L608.428194,55.7102895 L608.428194,55.7102895 L608.633967,55.2951549 C608.792235,54.9645668 608.916107,54.6725529 608.995273,54.4204696 C609.370829,53.7175066 609.023092,52.9496328 608.39854,53.7866709 L608.325273,53.8904696 L607.869284,54.6041799 L607.869284,54.6041799 L607.377312,55.3530895 L607.377312,55.3530895 L606.938288,56.0024378 L606.938288,56.0024378 L606.442185,56.7154049 L606.442185,56.7154049 L606.081055,57.2209383 L606.081055,57.2209383 L605.696529,57.7470644 L605.696529,57.7470644 L605.289397,58.29071 L605.289397,58.29071 L604.860449,58.8488022 C604.787183,58.9428508 604.713041,59.0373732 604.63804,59.1323055 L604.177845,59.7063059 C604.099471,59.8026217 604.020269,59.8992193 603.940258,59.9960347 L603.450594,60.579029 L603.450594,60.579029 L602.94227,61.164178 C599.751694,64.7729242 595.541744,68.3292931 591.145273,68.5904696 L590.963961,68.6002267 L590.963961,68.6002267 L590.601059,68.6131266 C590.540589,68.614502 590.48014,68.6154768 590.419736,68.6160312 L590.058015,68.614154 C584.404881,68.5007336 579.532673,64.3218696 593.905273,39.5904696 C594.345273,39.0504696 593.565273,38.4304696 593.135273,39.2004696 C592.914177,39.5841905 592.688887,39.9794637 592.459703,40.3850838 L591.76077,41.6317786 L591.76077,41.6317786 L590.672497,43.6023996 L590.672497,43.6023996 L587.177232,50.0105858 L587.177232,50.0105858 L586.3651,51.4893175 L586.3651,51.4893175 L585.13063,53.7130587 L585.13063,53.7130587 L584.110511,55.5212691 L584.110511,55.5212691 L583.370293,56.8125306 L583.370293,56.8125306 L582.628128,58.0866288 L582.628128,58.0866288 L581.885262,59.338548 L581.885262,59.338548 L581.390245,60.1583621 L581.390245,60.1583621 L580.89584,60.9646035 L580.89584,60.9646035 L580.402417,61.755786 L580.402417,61.755786 L579.910346,62.5304235 L579.910346,62.5304235 L579.419995,63.2870297 L579.419995,63.2870297 L578.931734,64.0241185 L578.931734,64.0241185 L578.445933,64.7402038 C578.365191,64.8577185 578.284568,64.9742961 578.20407,65.0899057 L577.722651,65.7716991 C577.642686,65.8833127 577.562862,65.9938964 577.483187,66.1034191 L577.006981,66.7475768 C576.927931,66.852732 576.849045,66.9567644 576.770331,67.059643 L576.300169,67.6628211 C574.740244,69.6256114 573.255177,71.1021114 571.906538,71.8446279 L571.705273,71.9504696 L571.705273,71.9204696 L571.53701,72.0023189 L571.53701,72.0023189 L571.195826,72.1592286 C571.13847,72.1846115 571.080877,72.2096053 571.023061,72.2342026 L570.673572,72.3769727 C570.61491,72.3999558 570.55605,72.4225281 570.497004,72.4446824 L570.140609,72.5725349 L570.140609,72.5725349 L569.780384,72.69001 L569.780384,72.69001 L569.41695,72.7967621 C569.356145,72.8136413 569.295232,72.8300593 569.234224,72.8460089 L568.867141,72.9360281 L568.867141,72.9360281 L568.498401,73.0144597 C568.436841,73.0265468 568.375238,73.0381366 568.313604,73.0492221 L567.943542,73.1096241 C563.192416,73.8056226 558.415273,71.4254696 559.515273,62.6804696 C559.67569,61.4051571 559.961229,59.9565373 560.358938,58.3643673 L560.586917,57.4818534 L560.586917,57.4818534 L560.836677,56.5719399 L560.836677,56.5719399 L561.107751,55.6356999 L561.107751,55.6356999 L561.399673,54.6742065 L561.399673,54.6742065 L561.711974,53.6885329 C561.765697,53.5222986 561.820249,53.3551015 561.875621,53.1869639 L562.217617,52.1670321 C562.334844,51.8234123 562.455272,51.4762096 562.578825,51.1256029 L562.958778,50.0637494 C563.02364,49.8851314 563.089263,49.7057071 563.155638,49.5254989 L563.562833,48.4350212 L563.562833,48.4350212 L563.987605,47.326802 L563.987605,47.326802 L564.429488,46.2019145 C564.504535,46.0131039 564.580275,45.8236434 564.656699,45.6335555 L565.123371,44.4856777 L565.123371,44.4856777 L565.605985,43.3238145 L565.605985,43.3238145 L566.104075,42.1490389 C566.188353,41.9522266 566.273257,41.7549209 566.358777,41.5571444 L566.879203,40.3650124 L566.879203,40.3650124 L567.413937,39.162651 L567.413937,39.162651 L567.962511,37.9511332 L567.962511,37.9511332 L568.524459,36.7315322 L568.524459,36.7315322 L569.099313,35.5049211 L569.099313,35.5049211 L569.686605,34.272373 L569.686605,34.272373 L570.285869,33.0349612 L570.285869,33.0349612 L570.896639,31.7937586 L570.896639,31.7937586 L571.518445,30.5498385 L571.518445,30.5498385 L572.150822,29.3042739 L572.150822,29.3042739 L572.793303,28.0581381 L572.793303,28.0581381 L573.44542,26.8125041 L573.44542,26.8125041 L574.106706,25.568445 L574.106706,25.568445 L574.776693,24.3270341 L574.776693,24.3270341 L575.454916,23.0893445 L575.454916,23.0893445 L576.140907,21.8564492 L576.140907,21.8564492 L576.834198,20.6294214 L576.834198,20.6294214 L577.534322,19.4093343 L577.534322,19.4093343 L578.240813,18.197261 L578.240813,18.197261 L578.953203,16.9942745 C579.072401,16.7945937 579.191825,16.5953361 579.311465,16.3965243 L580.031828,15.2091803 C580.272764,14.815301 580.514488,14.4233834 580.756923,14.0336062 L581.486282,12.8708749 C581.608171,12.6782162 581.730218,12.4861373 581.852414,12.2946606 L582.587294,11.1532058 C582.710045,10.9642273 582.832925,10.7758957 582.955924,10.5882334 L583.695273,9.47046958 L583.695273,9.47046958 Z M630.135273,45.8004696 C625.655273,34.9104696 635.165273,23.9304696 645.325273,28.3104696 C649.137512,29.9752457 647.176038,36.5695117 642.260721,36.4887768 L642.035273,36.4804696 L641.165273,36.0004696 C645.085273,31.2104696 639.855273,28.1104696 637.685273,31.6904696 C636.543398,33.5973446 637.068984,35.6402743 638.126528,37.9758797 L638.369833,38.4997845 L638.369833,38.4997845 L638.627882,39.0337067 L638.627882,39.0337067 L639.752134,41.2772079 L639.752134,41.2772079 L640.042366,41.866946 L640.042366,41.866946 L640.330727,42.4689932 C640.569479,42.975934 640.803398,43.4960946 641.025273,44.0304696 C644.355273,52.0904696 644.215273,56.5404696 640.735273,61.0304696 C631.975273,72.3104696 614.125273,69.1604696 619.595273,57.7004696 C621.475273,53.7804696 624.965273,50.8304696 631.155273,51.1704696 C631.735273,51.8404696 631.105273,53.0004696 630.665273,53.2504696 C625.785273,55.9104696 625.005273,64.8604696 627.865273,64.3704696 C629.895273,64.0304696 631.735273,62.5804696 633.135273,59.1004696 C634.163455,56.7013787 633.58893,54.113734 632.55683,51.4407006 L632.311051,50.8223779 L632.311051,50.8223779 L632.052155,50.2013054 L632.052155,50.2013054 L631.783267,49.5777649 L631.783267,49.5777649 L630.808638,47.3800045 L630.808638,47.3800045 L630.533494,46.7488442 L630.533494,46.7488442 L630.26556,46.1167654 C630.221678,46.011358 630.178228,45.9059241 630.135273,45.8004696 Z M800.565793,50.0288851 L800.455078,49.4579305 L800.455078,49.4579305 L800.307587,50.2390585 L800.307587,50.2390585 L800.159117,50.967658 L800.159117,50.967658 L799.839569,52.4539022 L799.839569,52.4539022 L799.47647,54.074264 L799.47647,54.074264 L799.096073,55.6707333 L799.096073,55.6707333 L798.395142,58.4689168 L798.395142,58.4689168 L797.572011,61.6603501 L797.572011,61.6603501 L796.420898,66.0428915 L804.621094,66.0428915 L802.959961,59.7147665 L802.678893,58.6752128 L802.678893,58.6752128 L802.262635,57.0838204 L802.262635,57.0838204 L801.798947,55.2577757 L801.798947,55.2577757 L801.273829,53.1340091 L801.273829,53.1340091 L800.961438,51.8209414 L800.961438,51.8209414 L800.711816,50.7180814 L800.711816,50.7180814 L800.565793,50.0288851 L800.565793,50.0288851 Z M836.709961,51.1454305 L834.65332,51.1454305 L834.65332,59.9520711 L836.604492,59.9520711 C840.243164,59.9520711 842.0625,58.3436727 842.0625,55.1268758 C842.0625,52.5463094 840.376065,51.220185 837.003194,51.1485026 L836.709961,51.1454305 Z M760.957031,51.1454305 L758.900391,51.1454305 L758.900391,59.9520711 L760.851562,59.9520711 C764.490234,59.9520711 766.30957,58.3436727 766.30957,55.1268758 C766.30957,52.5463094 764.623135,51.220185 761.250264,51.1485026 L760.957031,51.1454305 Z M725.44043,51.1454305 L722.513672,51.1454305 L722.513672,58.0536336 L725.651367,58.0536336 C727.145508,58.0536336 728.30127,57.7460165 729.118652,57.1307821 C729.936035,56.5155477 730.344727,55.6014852 730.344727,54.3885946 C730.344727,52.2920037 728.807536,51.2119417 725.733156,51.1484086 L725.44043,51.1454305 Z M595.985273,18.2104696 L596.407437,17.5511417 L596.407437,17.5511417 L596.803126,16.9087582 C596.866901,16.8031064 596.929598,16.6981606 596.99123,16.5939208 L597.348328,15.976955 C597.750254,15.2670464 598.101179,14.5917353 598.405372,13.951025 L598.654765,13.4103185 C598.694456,13.3216131 598.733218,13.2336138 598.771064,13.1463207 L598.987244,12.6310362 C599.055705,12.4620994 599.1206,12.2959874 599.182029,12.1327002 L599.356017,11.6513133 C599.383315,11.5724945 599.409771,11.4943821 599.435398,11.4169758 L599.579311,10.9610133 L599.579311,10.9610133 L599.70392,10.5220011 C599.723113,10.4502449 599.741526,10.3791951 599.759172,10.3088515 L599.855947,9.89526549 C599.92909,9.55767354 599.983681,9.23773934 600.021277,8.93546414 L600.058334,8.5812103 L600.058334,8.5812103 L600.079673,8.24390958 C600.095633,7.86028158 600.080723,7.51126718 600.039214,7.19686981 L599.997219,6.93586407 C599.940859,6.64124814 599.859118,6.38125022 599.756269,6.15587374 L599.663042,5.9711727 C599.172056,5.0900619 598.31576,4.8448731 597.430304,5.2358763 L597.252923,5.32255958 C597.104948,5.40186458 596.956786,5.49884208 596.809992,5.61349333 L596.634596,5.75955831 C596.605506,5.7853164 596.576496,5.81178146 596.547578,5.8389535 L596.375273,6.01046958 L596.375273,6.01046958 C595.637595,6.94261244 594.845934,8.04264433 594.014611,9.28109242 L593.454677,10.1269072 L593.454677,10.1269072 L592.883934,11.0117935 L592.883934,11.0117935 L592.303326,11.9338109 L592.303326,11.9338109 L591.713796,12.8910186 C591.614849,13.053378 591.515571,13.2171227 591.415979,13.3822125 L590.814832,14.3885673 L590.814832,14.3885673 L590.207121,15.4252609 L590.207121,15.4252609 L589.593787,16.490353 L589.593787,16.490353 L588.975773,17.5819027 L588.975773,17.5819027 L588.354023,18.6979696 L588.354023,18.6979696 L587.72948,19.836613 L587.72948,19.836613 L587.103087,20.9958923 L587.103087,20.9958923 L586.475786,22.173867 L586.475786,22.173867 L585.848521,23.3685964 L585.848521,23.3685964 L584.909752,25.1878606 L584.909752,25.1878606 L584.286701,26.4159867 L584.286701,26.4159867 L583.666986,27.6540755 L583.666986,27.6540755 L583.051549,28.9001864 L583.051549,28.9001864 L582.441335,30.1523786 L582.441335,30.1523786 L581.837285,31.4087118 C581.737176,31.6183379 581.637364,31.8280557 581.537867,32.0378247 L580.944832,33.2967305 L580.944832,33.2967305 L580.36032,34.5549257 L580.36032,34.5549257 L579.657707,36.0892494 L579.441252,36.5490981 L579.441252,36.5490981 L579.156943,37.1253605 L579.156943,37.1253605 L578.911667,37.5967182 L578.911667,37.5967182 L578.420988,38.5066795 C578.317212,38.7042159 578.214814,38.9081154 578.106217,39.1435673 L577.995273,39.3904696 L578.035273,39.3604696 C577.745273,40.0404696 578.175273,40.1404696 578.565273,39.6504696 C578.627626,39.5657637 578.699391,39.4735838 578.779688,39.3744183 L579.045298,39.0564537 L579.045298,39.0564537 L579.356826,38.6995068 L579.356826,38.6995068 L579.898677,38.0974063 L579.898677,38.0974063 L581.655273,36.1704696 L581.655273,36.1204696 C587.032704,30.6569886 591.834582,24.6554792 595.985273,18.2104696 Z" transform="translate(.345 1)"/>
</svg>
