<svg xmlns="http://www.w3.org/2000/svg" width="76" height="30" viewBox="0 0 76 30">
  <g fill="none">
    <path fill="#0047DD" d="M3.96690438,0 L72.0330956,0 C74.2234252,0 76,1.7899592 76,3.99749799 L76,26.0025023 C76,28.2100411 74.2234252,30 72.0330956,30 L3.96690438,30 C1.7765748,30 0,28.2100411 0,26.0025023 L0,3.99749799 C0,1.7899592 1.7765748,0 3.96690438,0 Z"/>
    <path fill="#FFF" d="M3.52509843,3.54707542 L5.96555118,3.54707542 L5.96555118,7.05661565 C5.58452249,7.18329661 5.1988189,7.27713489 4.80610236,7.33812957 C4.41338583,7.39912455 3.95755398,7.43196754 3.44094488,7.43196754 C2.35629921,7.43196754 1.51008828,7.10822623 0.906988189,6.45605261 C0.301550047,5.80622479 0,4.89365005 0,3.71598377 C0,2.96527998 0.149606299,2.30841416 0.448818898,1.74538632 C0.748031496,1.18235847 1.17814961,0.750703792 1.73917323,0.450422275 C2.30487235,0.150140758 2.96641225,0 3.72145669,0 C4.48117603,0 5.19180595,0.145448559 5.85334646,0.431654681 L5.52608268,1.17297468 C4.88324296,0.891460753 4.26377953,0.750703792 3.66535433,0.750703792 C2.79109282,0.750703792 2.10851348,1.01345012 1.61761811,1.53894277 C1.13139764,2.06443543 0.888287402,2.79167943 0.888287402,3.71598377 C0.888287402,4.6918987 1.12204724,5.4332187 1.58956693,5.93994376 C2.06176211,6.44197722 2.75836614,6.69064755 3.67470472,6.69064755 C4.17261304,6.69064755 4.65883351,6.63434476 5.13336614,6.5217392 L5.13336614,4.29777921 L3.52509843,4.29777921 L3.52509843,3.54707542 Z" transform="translate(7.064 10.634)"/>
    <polygon fill="#FFF" points="3.993 7.226 0 7.226 0 0 3.993 0 3.993 .751 .832 .751 .832 3.078 3.806 3.078 3.806 3.819 .832 3.819 .832 6.475 3.993 6.475" transform="translate(14.741 10.737)"/>
    <polygon fill="#FFF" points="3.104 7.226 2.272 7.226 2.272 .751 0 .751 0 0 5.376 0 5.376 .751 3.104 .751" transform="translate(19.423 10.737)"/>
    <path fill="#FFF" d="M4.50688976,5.4050673 C4.50688976,6.04316553 4.27546737,6.54050679 3.81496063,6.89709109 C3.35912879,7.25367539 2.73966535,7.43196754 1.95423228,7.43196754 C1.10568391,7.43196754 0.453493795,7.31936198 0,7.09415084 L0,6.28714426 C0.292199654,6.41382523 0.610113039,6.5123554 0.953740157,6.58742578 C1.30204217,6.65780396 1.64566929,6.69064755 1.98228346,6.69064755 C2.53629414,6.69064755 2.95472441,6.58507998 3.23523622,6.37159844 C3.51574803,6.1604633 3.65600394,5.86487338 3.65600394,5.48952148 C3.65600394,5.24085115 3.60457707,5.03675341 3.50639764,4.87957465 C3.40588076,4.71770429 3.23991112,4.56756354 3.01082677,4.42915237 C2.77940438,4.29308701 2.42408942,4.13825466 1.94488189,3.9693463 C1.27632844,3.73240557 0.799458961,3.44854525 0.514271654,3.11542074 C0.226746898,2.78464203 0.0841535433,2.35533315 0.0841535433,1.82984049 C0.0841535433,1.27385065 0.292199654,0.830466371 0.710629921,0.497341262 C1.12672214,0.166562554 1.67605792,0 2.35629921,0 C3.06692913,0 3.72145669,0.136065363 4.31988189,0.403503288 L4.05807087,1.12605569 C3.47133351,0.877384757 2.89862205,0.750703792 2.33759843,0.750703792 C1.89345443,0.750703792 1.54749046,0.849233965 1.29970472,1.04160151 C1.05659449,1.22927746 0.93503937,1.49671539 0.93503937,1.83922429 C0.93503937,2.09024102 0.977115843,2.29668456 1.06594488,2.45855492 C1.15944882,2.61573368 1.31373002,2.75883644 1.53346457,2.8902096 C1.75086107,3.02158276 2.0804623,3.16937772 2.5246063,3.33124808 C3.27731269,3.6010324 3.79625984,3.89193012 4.07677165,4.20394124 C4.36195836,4.51126075 4.50688976,4.91241764 4.50688976,5.4050673 Z" transform="translate(28.018 10.634)"/>
    <polygon fill="#FFF" points="3.104 7.226 2.272 7.226 2.272 .751 0 .751 0 0 5.376 0 5.376 .751 3.104 .751" transform="translate(33.084 10.737)"/>
    <path fill="#FFF" d="M5.4886811,7.25367539 L4.59104331,4.95464503 L1.72047244,4.95464503 L0.841535433,7.25367539 L0,7.25367539 L2.83316929,0 L3.53444882,0 L6.34891732,7.25367539 L5.4886811,7.25367539 Z M4.33858268,4.20394124 L3.50639764,1.96121366 C3.39419291,1.67969974 3.28198819,1.33249923 3.16978346,0.919612146 C3.09498031,1.23866126 2.99212598,1.58586176 2.86122047,1.96121366 L2.01968504,4.20394124 L4.33858268,4.20394124 Z" transform="translate(38.55 10.709)"/>
    <path fill="#FFF" d="M0.832185039,4.22270883 L0.832185039,7.225524 L0,7.225524 L0,0 L1.96358268,0 C2.84251969,0 3.4900343,0.173599952 3.90846457,0.516108857 C4.33156973,0.853925564 4.54429134,1.36534282 4.54429134,2.04566783 C4.54429134,2.99812357 4.06274636,3.64091339 3.10433071,3.9787301 L5.0492126,7.225524 L4.06742126,7.225524 L2.32824803,4.22270883 L0.832185039,4.22270883 Z M0.832185039,3.50015643 L1.97293307,3.50015643 C2.56434532,3.50015643 2.99680148,3.38520506 3.2726378,3.15295593 C3.54613666,2.91601519 3.68405512,2.56177669 3.68405512,2.09258682 C3.68405512,1.61166735 3.54379921,1.26681265 3.2632874,1.06036911 C2.98277559,0.849233365 2.53395669,0.741319995 1.91683071,0.741319995 L0.832185039,0.741319995 L0.832185039,3.50015643 Z" transform="translate(45.88 10.737)"/>
    <polygon fill="#FFF" points="3.104 7.226 2.272 7.226 2.272 .751 0 .751 0 0 5.376 0 5.376 .751 3.104 .751" transform="translate(51.183 10.737)"/>
    <polygon fill="#FFF" points="3.993 7.226 0 7.226 0 0 3.993 0 3.993 .751 .832 .751 .832 3.078 3.806 3.078 3.806 3.819 .832 3.819 .832 6.475 3.993 6.475" transform="translate(57.63 10.737)"/>
    <path fill="#FFF" d="M5.72244094,3.54707542 C5.72244094,4.73647189 5.39985206,5.64670024 4.75935039,6.27776046 C4.11651068,6.91116649 3.1908217,7.225524 1.98228346,7.225524 L0,7.225524 L0,0 L2.19734252,0 C3.31237682,0 4.17962598,0.314357513 4.79675197,0.93837974 C5.41387795,1.55771037 5.72244094,2.42805773 5.72244094,3.54707542 Z M4.83415354,3.57522681 C4.83415354,2.63215487 4.6003937,1.92133267 4.13287402,1.4451048 C3.66535433,0.971223332 2.9687497,0.731936198 2.04773622,0.731936198 L0.832185039,0.731936198 L0.832185039,6.5029716 L1.85137795,6.5029716 C2.84251969,6.5029716 3.58587569,6.25664707 4.08612205,5.76165161 C4.58403036,5.26900254 4.83415354,4.53941214 4.83415354,3.57522681 Z" transform="translate(63.21 10.737)"/>
  </g>
</svg>
