<svg xmlns="http://www.w3.org/2000/svg" width="102" height="137" viewBox="0 0 102 137">
  <g fill="none" fill-rule="evenodd" stroke="#FFF" stroke-width=".5" transform="translate(1 1)">
    <path fill="#DFF1EE" d="M26.4244504,121.799093 C26.4244504,121.296786 28.5324134,115.909737 28.5324134,115.909737 L34.7801575,117.397206 L47.0962539,118.480495 L57.3452559,117.784095 L64.5390023,116.693025 L72.3926701,117.385534 L73.5073093,122.337279 L74.2954293,130.359063 L68.1363056,126.298243 L65.5645908,125.307894 L65.5645908,129.665689 L61.3060754,133.92406 L60.852218,126.69421 L59.3934216,127.29205 L57.9505425,130.457622 L55.8890407,125.802852 L54.2977438,129.962664 L51.3293877,132.834719 L50.0112656,127.684559 L49.1078529,130.656038 L47.8095197,132.834719 L45.6077739,128.080958 L44.4742061,125.802852 L42.8545161,126.496226 L41.9472317,130.656038 L40.2922656,126.595218 L39.4052004,126.199251 L38.7977629,132.834719 L36.5938661,131.745379 L34.3899693,128.179949 L33.3927737,124.860054 L28.1688973,129.170298 L26.3947668,129.566265 L26.4244504,121.799093"/>
    <path fill="#DFF1EE" d="M72.4541882,113.384801 L72.6417538,104.44313 L78.0458826,101.538221 L93.3836794,98.7651577 L97.7200604,90.8419335 L95.0915596,82.2586207 L91.5432986,73.1474965 L95.0915596,62.7148982 L94.3030093,35.5129379 L85.3669671,16.3651821 L65.2759289,5.53661715 L40.2100981,4.34698798 C40.2100981,4.34698798 18.4761394,12.2676185 17.0857442,13.3236738 C15.6957792,14.3805936 6.51667593,29.6936109 6.51667593,29.6936109 L3.49239435,46.8507264 L8.47450033,65.3089987 L7.96428725,74.4672413 L4.94172645,81.9940666 L4.15317622,91.6144144 L8.88404742,97.8400827 L19.26555,101.933756 L25.9056334,103.819785 L27.4534805,110.913035 L28.5177867,115.884665 L28.3418363,116.326885 L39.8401291,117.532077 L51.5100703,118.873435 L65.4320903,116.823573 L71.4161239,116.047202 L71.3903121,115.97285 L72.4541882,113.384801"/>
    <path fill="#608A86" d="M63.0216991 109.63306C63.0216991 109.63306 61.8644705 114.180193 58.9313905 115.089273L63.0216991 116.810172 69.2212613 115.884665 72.3922399 111.873989 71.0939067 105.310712 68.2369716 106.292848 63.0216991 109.63306M72.0476524 95.3769625C72.0476524 95.3769625 94.6914768 98.9653025 94.6914768 87.5752084L96.5589599 89.1590751 93.7631127 96.8964198 81.7382594 102.133036 67.4488516 100.25133 72.0476524 95.3769625M37.0296552 109.63306C37.0296552 109.63306 38.1868838 114.180193 41.1199637 115.089273L37.0296552 116.810172 30.830093 115.884665 27.6595446 111.873989 28.9574475 105.310712 31.8143827 106.292848 37.0296552 109.63306M20.508818 26.4312086C20.508818 26.4312086 4.94172645 37.2303786 6.64186312 50.4295563L5.99312676 57.8630095 8.25983226 60.6360731 16.4404494 54.0006052 13.8777687 42.115985C13.8777687 42.115985 15.8054793 32.2375672 20.508818 26.4312086M27.4534805 39.8789461C27.4534805 39.8789461 20.9033082 43.5334247 19.1016451 54.6939792L25.7051618 59.8437075 24.7195816 47.6621123C24.7195816 47.6621123 26.0480284 42.6922116 27.4534805 39.8789461M79.3678765 26.4312086C79.3678765 26.4312086 94.934968 37.2303786 93.2344012 50.4295563L93.8835677 57.8630095 91.6168622 60.6360731 83.4362451 54.0006052 85.9984956 42.115985C85.9984956 42.115985 84.0712152 32.2375672 79.3678765 26.4312086M72.423214 39.8789461C72.423214 39.8789461 78.9738165 43.5334247 80.7750494 54.6939792L74.1715327 59.8437075 75.1571129 47.6621123C75.1571129 47.6621123 73.8282359 42.6922116 72.423214 39.8789461"/>
    <path fill="#0D181A" d="M41.9459411,70.0830774 C41.9459411,70.0830774 39.8396989,72.4048428 29.2766534,68.079901 C19.2018809,63.9546716 15.6540502,64.7755676 14.6981535,68.3090084 C13.7422568,71.8420168 7.92384877,91.6113884 24.8155154,91.6144144 C44.973234,91.6178726 41.5480093,71.5238601 41.9459411,70.0830774"/>
    <path fill="#608A86" d="M17.0883254,81.368128 C17.0883254,81.368128 21.6290497,87.6919234 30.3125666,87.291634 C30.3125666,87.291634 23.302084,90.093228 20.1151881,87.8518663 C16.9287225,85.610937 17.0883254,81.368128 17.0883254,81.368128"/>
    <path fill="#0D181A" d="M49.0325685,82.7276424 C49.0325685,82.7276424 49.1917412,80.966974 46.6428268,80.966974 C44.0934821,80.966974 45.4477408,83.8485394 42.5000342,89.211813 C39.5523276,94.5750867 38.2780855,104.981748 42.8188098,105.301634 C47.3595342,105.621952 49.554827,97.2132796 49.0325685,82.7276424"/>
    <path fill="#608A86" d="M28.004132 95.3769625C28.004132 95.3769625 5.35987747 98.9653025 5.35987747 87.5752084L3.49239435 89.1590751 6.28867178 96.8964198 18.3130949 102.133036 32.6029329 100.25133 28.004132 95.3769625M46.6428268 96.8964198C46.6428268 96.8964198 43.4563611 103.78088 41.3849648 100.33865 41.3849648 100.33865 41.5841458 104.576271 44.0693911 103.700476 46.5546365 102.825113 46.6428268 96.8964198 46.6428268 96.8964198"/>
    <path fill="#0D181A" d="M57.9617276,70.0830774 C57.9617276,70.0830774 60.0679698,72.4048428 70.6310153,68.079901 C80.7057877,63.9546716 84.2536185,64.7755676 85.2095152,68.3090084 C86.1654119,71.8420168 91.9838199,91.6113884 75.0921533,91.6144144 C54.9344346,91.6178726 58.3600896,71.5238601 57.9617276,70.0830774"/>
    <path fill="#608A86" d="M82.8197735,81.368128 C82.8197735,81.368128 78.2786189,87.6919234 69.5955322,87.291634 C69.5955322,87.291634 76.6060148,90.093228 79.7924805,87.8518663 C82.9789462,85.610937 82.8197735,81.368128 82.8197735,81.368128"/>
    <path fill="#0D181A" d="M54.3003249 73.7630604C54.140722 71.2813522 51.4322047 69.5202514 51.4322047 69.5202514 51.5918076 66.9585718 49.9557702 61.5952981 49.9557702 61.5952981L49.9540494 61.8974604 49.9523286 61.5952981C49.9523286 61.5952981 48.3162912 66.9585718 48.475464 69.5202514 48.475464 69.5202514 45.7669466 71.2813522 45.6077739 73.7630604 45.6077739 73.7630604 47.4571888 72.0313546 49.9540494 72.0041211 52.4509101 72.0313546 54.3003249 73.7630604 54.3003249 73.7630604M50.8751002 82.7276424C50.8751002 82.7276424 50.7159275 80.966974 53.2652721 80.966974 55.8146167 80.966974 54.460358 83.8485394 57.4080646 89.211813 60.355341 94.5750867 61.6300133 104.981748 57.0888588 105.301634 52.5481345 105.621952 50.3532718 97.2132796 50.8751002 82.7276424"/>
    <path fill="#608A86" d="M53.2652721 96.8964198C53.2652721 96.8964198 56.4517378 103.78088 58.5227038 100.33865 58.5227038 100.33865 58.3235228 104.576271 55.8382775 103.700476 53.3530322 102.825113 53.2652721 96.8964198 53.2652721 96.8964198M35.0245092 121.749813C35.0245092 121.749813 36.0079384 125.824899 37.9378 127.397958 38.4200503 127.791331 38.6618208 128.006174 38.7530225 128.107759 39.0274878 128.41165 37.9476946 127.692772 37.9476946 127.692772L38.2221599 132.834719 35.4624492 129.665689 34.3899693 125.320862M31.6651045 119.554273C31.6651045 119.554273 30.8137456 122.345493 27.8161362 124.519851L26.3947668 129.566265 32.1116485 125.901844 33.3927737 121.346066M40.1752522 121.749813C40.1752522 121.749813 41.1698665 124.993628 42.2092214 125.299248L42.7560011 128.774332 41.9472317 129.566265 39.8401291 125.658039M45.097991 122.922152C45.097991 122.922152 45.9411762 126.095505 47.847377 126.395073 47.847377 126.395073 48.6699128 127.981966 48.6699128 128.278941 48.6699128 128.575916 48.1769076 132.537744 48.1769076 132.537744L44.0134656 125.658039 42.7560011 122.336415M64.8775669 121.749813C64.8775669 121.749813 63.8941377 125.824899 61.9642761 127.397958 61.4820257 127.791331 61.2402553 128.006174 61.1490536 128.107759 60.8745882 128.41165 61.9543815 127.692772 61.9543815 127.692772L61.6799161 132.834719 64.4396269 129.665689 65.512537 125.320862M68.2369716 119.554273C68.2369716 119.554273 69.0883305 122.345493 72.0863701 124.519851L73.5073093 129.566265 67.7904276 125.901844 66.5093024 121.346066M59.7268239 121.749813C59.7268239 121.749813 58.7322095 124.993628 57.6928547 125.299248L57.146075 128.774332 57.9548444 129.566265 60.061947 125.658039M54.8040851 122.922152C54.8040851 122.922152 53.9608999 126.095505 52.0542689 126.395073 52.0542689 126.395073 51.2321633 127.981966 51.2321633 128.278941 51.2321633 128.575916 51.7251685 132.537744 51.7251685 132.537744L55.8886105 125.658039 57.146075 122.336415"/>
    <path fill="#0D181A" d="M92.715154,93.7758046 C89.7674474,97.4583812 78.2166706,102.901626 70.4890504,100.180004 C70.4890504,100.180004 70.4094641,97.3784098 72.0024818,95.3769625 C72.0024818,95.3769625 66.9838091,94.2560655 64.0361025,105.623249 C64.0361025,105.623249 63.1597922,109.305393 62.4426546,111.306841 C62.4426546,111.306841 64.2748616,111.947044 66.5854471,110.265915 C68.8956025,108.585218 69.2939645,108.024986 70.6482231,107.865043 C70.6482231,107.865043 70.7243679,112.127737 69.7396481,113.941575 C67.8041939,113.829183 66.5755526,115.085383 66.1978401,115.144173 C65.6747211,114.970829 65.1877386,114.905123 64.7368927,114.916794 L64.7390436,114.913769 C64.6715028,114.909878 64.5850333,114.917227 64.4865183,114.931924 C64.0550312,114.971694 63.6592504,115.083222 63.3013269,115.241435 C62.7033537,115.433799 62.1660382,115.639131 62.1660382,115.639131 C62.1660382,115.639131 58.1587576,114.005552 60.7795148,105.905959 C60.7795148,105.905959 57.7926603,108.519944 57.2372766,115.975443 C56.3463396,115.958152 55.4119528,116.075732 54.5451068,116.248643 C53.915299,115.263049 53.6145917,113.219671 55.0531689,108.982049 C55.0531689,108.982049 51.292821,111.724421 51.5229762,116.930778 C50.7864797,117.082507 50.2018426,117.393748 49.953189,117.955277 C49.8297226,117.677754 49.6227981,117.462048 49.357797,117.296053 L49.362099,117.294756 C49.3560762,117.29173 49.3466119,117.287407 49.3392986,117.283949 C49.084192,117.128329 48.7774619,117.016801 48.4341651,116.942017 C48.4173874,116.936397 48.4023305,116.93121 48.3851227,116.925158 C48.6122665,111.72226 44.85493,108.982049 44.85493,108.982049 C46.2530687,113.101659 46.0078567,115.148063 45.4141855,116.163917 C44.511203,116.010026 43.5574573,115.928325 42.672543,116.001812 C42.1218915,108.525996 39.128584,105.905959 39.128584,105.905959 C41.7489111,114.005552 37.7420606,115.639131 37.7420606,115.639131 C37.7420606,115.639131 37.197862,115.431205 36.5947265,115.237545 C36.2419653,115.082357 35.8522073,114.972991 35.4276033,114.932356 C35.3260769,114.917659 35.2378866,114.909878 35.168625,114.913769 L35.1720666,114.918091 C34.7238018,114.905988 34.2385401,114.973855 33.7197231,115.144173 C33.3609392,115.109158 32.1628419,113.870249 30.2643846,113.93682 C29.2818157,112.12082 29.3583907,107.865043 29.3583907,107.865043 C30.7126494,108.024986 31.1110114,108.585218 33.4211667,110.265915 C35.7313221,111.947044 37.5635291,111.306841 37.5635291,111.306841 C36.8463915,109.305393 35.9700811,105.623249 35.9700811,105.623249 C33.0228047,94.2560655 28.004132,95.3769625 28.004132,95.3769625 C29.5971498,97.3784098 29.5175634,100.180004 29.5175634,100.180004 C21.7899432,102.901626 10.2391665,97.4583812 7.29145988,93.7758046 C4.34375328,90.0936602 5.021743,84.0517101 7.61023551,79.8482384 C9.53966693,76.7137903 10.2391665,71.7629099 10.5579421,68.3206799 C10.8762875,64.8788821 10.5940786,63.0909801 11.2583021,61.5166235 C14.4421865,53.9725071 20.8344767,63.1977528 31.429787,65.5190859 C42.0250972,67.840419 44.2556662,64.3986212 43.618115,59.2752618 C42.9809939,54.1519025 38.8382014,53.5116987 38.8382014,53.5116987 C40.9108882,56.4741001 40.5895314,59.4347724 40.5895314,59.4347724 C39.6710618,64.6566912 31.0236815,59.9971662 31.0236815,59.9971662 C23.0362226,55.9912456 27.4534805,39.8789461 27.4534805,39.8789461 C22.2653104,45.0801155 22.1224851,53.3353293 22.2300343,56.0530613 C19.1162718,53.1006023 15.9087265,46.8930896 15.9087265,42.7605116 C15.9087265,33.1596163 20.508818,26.4312086 20.508818,26.4312086 C17.7207143,28.0323664 10.0610651,36.4989641 12.0700829,46.9428016 C12.3630467,48.4648526 12.8487386,51.1090974 11.383059,52.3501676 C10.0580537,53.4719291 8.46159443,53.2233693 7.37405761,55.7517635 C5.64036561,45.9446716 5.0845517,31.8294967 14.3707739,20.2107275 C25.0757843,6.81659243 44.2548058,6.20621584 49.2493875,6.28099994 L49.2493875,6.31990496 C49.2493875,6.31990496 49.530736,6.30607207 49.9149015,6.29440056 C50.2994972,6.30607207 50.5808458,6.31990496 50.5808458,6.31990496 L50.5808458,6.28099994 C55.5754274,6.20621584 74.7927365,6.81659243 85.4986072,20.2107275 C94.7340663,31.7659519 94.2802089,45.7899161 92.5701777,55.5900915 C91.4847919,53.2333117 89.9240389,53.4472893 88.628287,52.3501676 C87.1626074,51.1090974 87.6461483,48.4648526 87.9382517,46.9428016 C89.9476997,36.4989641 82.2871902,28.0323664 79.4990865,26.4312086 C79.4990865,26.4312086 84.0983175,33.1596163 84.0983175,42.7605116 C84.0983175,46.8930896 80.890342,53.1006023 77.7765796,56.0530613 C77.8845589,53.3353293 77.7413035,45.0801155 72.5531334,39.8789461 C72.5531334,39.8789461 76.9699611,55.9912456 68.9829324,59.9971662 C68.9829324,59.9971662 60.3351218,64.6566912 59.4166522,59.4347724 C59.4166522,59.4347724 59.0952954,56.4741001 61.1679823,53.5116987 C61.1679823,53.5116987 57.0256199,54.1519025 56.3880687,59.2752618 C55.7509476,64.3986212 57.9815166,67.840419 68.5768269,65.5190859 C79.1717069,63.1977528 85.5639971,53.9725071 88.7483118,61.5166235 C89.4125352,63.0909801 89.1298961,64.8788821 89.4486717,68.3206799 C89.7674474,71.7629099 90.4665167,76.7137903 92.3963783,79.8482384 C94.9844406,84.0517101 95.6628606,90.0936602 92.715154,93.7758046 Z M69.5103533,124.989737 C67.3288267,122.268115 68.1844876,119.298365 68.6981423,118.069398 C68.9902457,117.890003 69.2931041,117.728331 69.6157515,117.728331 C69.7258818,117.728331 69.8398839,117.745622 69.9650711,117.781069 C70.8168602,118.022712 71.1463907,118.365076 71.3386886,118.636547 C71.7516772,119.220555 71.9586018,120.221278 71.9366617,121.528919 C71.9031064,123.50443 72.1741302,125.697377 72.6417538,127.698392 C71.5959461,127.089312 70.4985147,126.222162 69.5103533,124.989737 Z M64.8835897,121.749813 C64.6276227,122.817108 64.4903901,123.893048 64.3578895,124.933541 C64.0455668,127.386719 63.7637881,129.600415 62.0262244,131.657626 C61.8442512,129.211365 61.8790971,125.296223 62.7532565,119.448365 C62.9588904,119.128047 63.5611656,118.395768 64.3587499,118.395768 C64.6263322,118.395768 64.9322019,118.472281 65.2617324,118.619688 C65.3021709,119.103407 65.284963,120.073007 64.8835897,121.749813 Z M58.0447555,128.379662 C57.6988775,125.839164 57.2772849,123.172441 58.3162095,119.157442 L58.3334174,119.157442 C58.3334174,119.157442 58.4319324,118.737268 59.0075353,118.656864 L59.512586,118.712628 C59.9320277,118.921851 59.8881476,119.548221 59.8881476,119.548221 L59.9156802,119.507587 C59.8072707,122.006154 59.3740628,125.03383 58.0447555,128.379662 Z M52.5606102,130.427363 C52.457363,130.595519 52.3541158,130.752436 52.2521593,130.898978 C52.1493423,129.646236 52.0658842,127.872167 52.0491065,125.374897 C52.0353402,123.354862 52.0706163,121.422147 52.1054623,120.072142 C52.1058924,119.442313 52.7653837,119.19116 53.5229598,119.11724 C53.8701284,119.141016 54.2185876,119.179488 54.5524201,119.227039 C55.0114398,119.533524 55.0191833,120.257157 55.0187658,120.307302 C54.7765525,125.678789 53.5922214,128.747098 52.5606102,130.427363 Z M47.8589923,125.374897 C47.8422147,127.872167 47.7587565,129.646236 47.6555094,130.898978 C47.5535528,130.752436 47.4503056,130.595519 47.3474887,130.427363 C46.3158774,128.747098 45.1311162,125.678789 44.8889024,120.307734 C44.8884853,120.259751 44.8957987,119.533956 45.3552486,119.227039 C45.6890811,119.179056 46.0379704,119.141016 46.3847088,119.11724 C47.1422849,119.19116 47.8017762,119.441881 47.8026366,120.07171 C47.8374825,121.421714 47.8723284,123.35443 47.8589923,125.374897 Z M41.8629131,128.379662 C40.5336059,125.03383 40.100398,122.006154 39.9924187,119.50802 L40.019521,119.548221 C40.019521,119.548221 39.975641,118.92358 40.3950826,118.714789 L40.9005635,118.656432 C41.4757363,118.737268 41.5742513,119.157442 41.5742513,119.157442 L41.5914591,119.157442 C42.6299536,123.172441 42.2087912,125.839164 41.8629131,128.379662 Z M37.8814443,131.657626 C36.1443107,129.600415 35.862532,127.386719 35.5497791,124.933541 C35.4172786,123.893048 35.2804761,122.817108 35.0245092,121.749813 C34.6231358,120.073007 34.6054977,119.103407 34.6463664,118.619688 C34.975897,118.472281 35.2813365,118.395768 35.5489187,118.395768 C36.3469333,118.395768 36.9487782,119.128047 37.1548424,119.448365 C38.0290017,125.296223 38.0634174,129.211365 37.8814443,131.657626 Z M30.3977455,124.989737 C29.4091539,126.222162 28.3117226,127.089312 27.266345,127.698392 C27.7339686,125.697377 28.0045622,123.50443 27.9714371,121.528919 C27.9490669,120.221278 28.1559914,119.220555 28.5689801,118.636547 C28.7612779,118.365076 29.0908085,118.022712 29.9425976,117.781069 C30.0677848,117.745622 30.1822171,117.728331 30.2923474,117.728331 C30.6149948,117.728331 30.9174229,117.890003 31.2099566,118.069398 C31.723181,119.298365 32.5792721,122.268115 30.3977455,124.989737 Z M98.2922217,83.2096324 C91.6284775,69.2107403 94.0698428,72.5626243 96.4600147,65.598625 L96.379568,65.5744175 C96.5757376,65.0323408 99.9549313,55.4673246 98.0982031,40.5437898 C96.2061988,25.3353837 87.5407501,0.531269713 50.5808458,0.0125360632 L50.5808458,0 C50.2478736,0 50.1127919,0.00475505845 49.9149015,0.00648417062 C49.7174413,0.00475505845 49.5819294,0 49.2493875,0 L49.2493875,0.0125360632 C12.2894831,0.531269713 3.66275218,25.3353837 1.77074785,40.5437898 C-0.141045511,55.9130032 3.51003241,65.5994896 3.51003241,65.5994896 L3.53369322,65.6012187 C5.92300473,72.5617597 8.36996257,69.2124695 1.70750896,83.2096324 C-5.23371199,97.7925322 10.7390548,102.920647 18.2816905,103.462291 C22.7428285,103.782177 26.2497906,104.022523 25.6918257,108.024553 C25.2216209,111.399348 26.4511226,114.432211 26.848194,115.300657 C25.5313624,116.413773 24.6817243,118.274298 24.7342082,121.391455 C24.8137946,126.114093 23.2207769,131.55777 21.8665182,133.158928 C21.8665182,133.158928 28.2398797,132.99812 32.8601904,127.23499 C32.9522525,127.120436 33.0395824,127.00545 33.1247613,126.890464 C33.7072474,129.675631 34.9840707,132.503162 38.9947929,135 C38.9947929,135 39.9089605,133.049561 39.8784166,127.73038 C40.5189792,129.563671 41.3914178,131.282841 42.5796206,132.598263 C42.5796206,132.598263 43.3436496,130.714828 43.7028637,127.610639 C45.5724978,134.077086 49.108283,135 49.108283,135 C49.5457929,134.373629 49.8056316,132.690338 49.9540494,130.615836 C50.102037,132.690338 50.3618757,134.373629 50.7993856,135 C50.7993856,135 54.3368916,134.076654 56.2065257,127.605884 C56.5640191,130.712666 57.3284783,132.598263 57.3284783,132.598263 C58.5166811,131.282841 59.3886894,129.564104 60.0292521,127.730812 C59.9987081,133.049561 60.9133059,135 60.9133059,135 C64.923598,132.503162 66.2004212,129.675631 66.7829073,126.890032 C66.8680863,127.00545 66.9558463,127.120436 67.0474782,127.23499 C71.6677889,132.99812 78.0411504,133.158928 78.0411504,133.158928 C76.9432889,131.518865 75.7968152,126.007752 75.1734604,121.391455 C74.7634831,118.357728 74.4055596,116.481209 73.1287363,115.362041 C73.4905316,114.586534 74.7953177,111.486668 74.3126372,108.024553 C73.7546723,104.022523 77.2603438,103.782177 81.7214817,103.462291 C89.2641174,102.920647 105.233443,97.7925322 98.2922217,83.2096324 L98.2922217,83.2096324 Z"/>
  </g>
</svg>
